<?xml version="1.0" standalone="no"?>
<!DOCTYPE svg PUBLIC "-//W3C//DTD SVG 20010904//EN"
 "http://www.w3.org/TR/2001/REC-SVG-20010904/DTD/svg10.dtd">
<svg version="1.0" xmlns="http://www.w3.org/2000/svg"
 width="400.000000pt" height="400.000000pt" viewBox="0 0 400.000000 400.000000"
 preserveAspectRatio="xMidYMid meet">

<g transform="translate(0.000000,400.000000) scale(0.100000,-0.100000)"
fill="#000000" stroke="none">
<path d="M2697 3268 c-9 -31 -2 -33 11 -3 6 14 8 25 3 25 -5 0 -11 -10 -14
-22z"/>
<path d="M2488 3212 c-2 -9 -1 -28 3 -42 4 -14 8 -18 8 -10 1 12 5 11 16 -4
19 -25 19 -40 0 -32 -9 3 -23 -6 -36 -24 -18 -24 -25 -27 -46 -19 -32 12 -32
12 -26 -10 3 -13 -1 -21 -14 -25 -14 -5 -19 -14 -17 -39 1 -18 -4 -40 -13 -49
-10 -11 -14 -29 -11 -50 3 -18 2 -45 -3 -61 -5 -16 -4 -25 2 -22 13 8 11 -9
-2 -22 -13 -13 6 -122 29 -167 13 -27 16 -28 27 -13 17 24 22 22 40 -17 9 -19
28 -42 41 -51 31 -20 30 -28 -6 -65 -16 -17 -33 -42 -36 -55 -3 -14 -10 -23
-14 -20 -4 3 -10 -4 -13 -15 -3 -11 -2 -20 3 -20 4 0 26 -38 48 -85 30 -62 42
-102 47 -150 6 -70 -10 -92 -20 -27 -10 56 -13 61 -14 20 -1 -54 26 -127 66
-175 l34 -43 -53 0 c-29 0 -63 -3 -75 -6 -19 -5 -26 1 -48 52 -21 46 -26 70
-23 111 l4 51 -25 -16 c-28 -18 -52 -45 -45 -51 2 -2 12 4 23 13 19 17 19 16
23 -46 2 -41 -3 -80 -14 -113 -9 -28 -13 -51 -7 -53 5 -2 7 -8 4 -12 -3 -5 -3
-21 1 -35 l6 -26 14 23 c7 13 18 33 23 45 11 23 31 40 31 25 0 -4 15 -25 33
-45 30 -35 34 -36 54 -22 18 12 22 13 26 1 3 -8 22 -19 41 -26 20 -6 36 -16
36 -21 0 -6 5 -7 10 -4 6 3 10 1 10 -4 0 -6 9 -11 19 -11 11 0 23 -5 26 -10 9
-15 25 -2 18 15 -7 19 6 19 31 0 27 -21 43 -19 49 6 4 13 10 18 18 13 8 -4 10
-3 5 4 -4 7 -2 12 5 12 10 0 49 37 49 47 0 2 -9 -1 -21 -8 -19 -10 -20 -9 -14
12 10 30 46 79 59 80 53 7 52 7 48 -27 -3 -21 0 -34 7 -34 6 0 11 -4 11 -10 0
-5 -7 -10 -17 -10 -18 0 -74 -39 -117 -83 -22 -23 -25 -31 -15 -38 11 -6 11
-11 1 -21 -9 -9 -12 -9 -12 1 0 7 -4 9 -10 6 -5 -3 -10 1 -10 9 0 9 -4 16 -10
16 -5 0 -10 -9 -10 -20 0 -10 -9 -28 -21 -39 -14 -13 -19 -26 -15 -43 3 -12 3
-17 0 -10 -3 6 -10 12 -15 12 -13 0 -11 -29 3 -44 19 -20 58 20 58 61 0 18 5
33 11 33 5 0 7 -4 4 -10 -3 -5 1 -10 10 -10 9 0 14 4 11 9 -3 5 1 12 10 15 8
3 12 2 9 -4 -3 -6 1 -10 10 -10 11 0 15 5 12 14 -4 10 2 13 22 11 15 -1 33 -5
39 -9 6 -4 19 5 28 19 11 18 24 25 36 22 10 -3 18 0 18 6 1 7 8 28 18 48 15
31 19 34 30 22 10 -10 17 -11 27 -3 7 6 27 8 43 5 48 -8 72 30 72 112 0 40 4
62 10 58 6 -3 10 -2 10 3 0 6 -6 12 -14 15 -7 3 -17 26 -20 51 -5 28 -17 57
-32 74 l-25 27 15 -30 c16 -35 33 -161 28 -219 l-3 -39 -60 6 c-42 4 -65 11
-74 24 -13 16 -14 16 -15 1 0 -9 -7 -15 -15 -14 -19 3 -32 16 -16 16 9 0 11 9
7 28 -5 19 -4 23 3 12 12 -18 13 -17 34 51 21 70 22 168 2 195 -8 10 -15 40
-15 66 0 41 10 75 52 178 12 28 16 107 7 122 -4 5 -9 -6 -13 -26 l-7 -37 -28
30 c-16 17 -31 28 -33 25 -3 -3 -22 3 -42 12 l-36 18 45 39 c25 22 45 43 45
47 0 5 5 21 10 35 8 22 13 25 25 15 7 -6 17 -25 20 -41 4 -16 10 -27 14 -24 5
2 14 -8 21 -23 l14 -27 4 24 c6 37 -7 74 -24 67 -11 -4 -13 0 -9 17 15 62 21
116 14 111 -12 -7 -11 19 1 50 5 14 6 26 1 26 -15 0 -42 83 -30 91 17 10 4 25
-57 64 -30 19 -54 39 -54 44 0 17 -72 63 -106 67 -20 2 -51 11 -69 18 -18 8
-36 12 -39 8 -20 -19 -110 -3 -156 28 -40 27 -58 30 -62 12z m242 -257 c11
-13 8 -15 -13 -15 -28 0 -44 15 -25 23 21 9 25 8 38 -8z m-150 -49 c58 -53 82
-66 123 -66 56 0 107 71 60 83 -16 4 -16 5 -1 6 9 0 30 -11 47 -25 23 -19 31
-22 31 -10 0 8 -4 18 -10 21 -13 8 -13 35 0 35 5 0 12 -11 16 -24 3 -14 12
-27 20 -30 11 -4 13 0 8 19 -7 29 -2 31 30 10 14 -10 27 -30 30 -50 4 -19 16
-41 27 -48 17 -13 11 -15 -64 -19 -62 -4 -100 -13 -145 -33 -56 -25 -64 -26
-115 -15 -44 9 -68 8 -127 -4 -75 -16 -93 -15 -72 6 9 9 8 15 -3 28 -12 13
-12 24 4 85 14 58 21 70 42 76 34 8 48 2 99 -45z m-204 -13 c-10 -10 -19 5
-10 18 6 11 8 11 12 0 2 -7 1 -15 -2 -18z m524 -118 c10 -12 9 -15 -9 -15 -14
0 -22 -8 -27 -27 -3 -16 -7 -34 -10 -40 -2 -7 4 -14 14 -14 15 -1 15 -2 1 -6
-10 -2 -19 -13 -22 -24 -3 -10 -10 -19 -17 -19 -6 0 -8 5 -5 10 3 6 10 32 14
59 7 47 6 50 -16 56 -13 3 -29 2 -36 -2 -7 -4 -6 0 2 10 8 11 21 15 32 12 11
-4 19 -3 19 2 0 15 47 13 60 -2z m-279 -48 c-1 -4 -1 -14 -1 -22 0 -26 -16
-16 -18 11 -1 15 3 24 9 22 6 -2 10 -7 10 -11z m156 -9 c-3 -8 -6 -5 -6 6 -1
11 2 17 5 13 3 -3 4 -12 1 -19z m170 -14 c-3 -3 -12 -4 -19 -1 -8 3 -5 6 6 6
11 1 17 -2 13 -5z m-190 -77 l40 -64 -62 0 c-34 -1 -72 -6 -84 -12 -23 -13
-28 -2 -11 27 6 9 19 38 30 65 10 26 25 47 33 47 7 0 31 -28 54 -63z m-227
-24 c0 -5 -5 -15 -10 -23 -8 -13 -12 -12 -27 4 -16 18 -16 19 0 7 14 -11 17
-11 17 3 0 9 5 16 10 16 6 0 10 -3 10 -7z m-57 -153 c-3 -12 -8 -19 -11 -16
-5 6 5 36 12 36 2 0 2 -9 -1 -20z m342 -53 c11 -6 21 -10 23 -9 14 10 32 -2
32 -22 0 -50 -63 -96 -111 -81 -19 6 -18 8 5 26 13 10 31 19 39 19 9 0 19 5
22 10 10 17 -4 47 -23 46 -9 0 -46 2 -82 4 -48 2 -55 4 -27 7 22 3 35 8 31 14
-7 12 61 2 91 -14z m-365 -7 c0 -5 -4 -10 -10 -10 -5 0 -10 5 -10 10 0 6 5 10
10 10 6 0 10 -4 10 -10z m175 -37 c-16 -16 -16 -17 1 -30 10 -7 26 -13 36 -13
10 0 18 -7 18 -15 0 -10 -10 -15 -33 -15 -26 0 -36 6 -51 31 -17 29 -17 31 1
44 27 21 49 19 28 -2z m362 -215 c-3 -8 -6 -5 -6 6 -1 11 2 17 5 13 3 -3 4
-12 1 -19z m-360 -224 c-3 -3 -12 -4 -19 -1 -8 3 -5 6 6 6 11 1 17 -2 13 -5z
m72 -56 c11 -11 12 -10 6 2 -4 8 1 6 12 -5 14 -13 16 -22 9 -27 -6 -4 -9 -8
-6 -9 3 0 14 -2 25 -4 11 -2 27 3 37 12 16 14 17 14 13 -7 -10 -50 -25 -53
-69 -13 -44 39 -62 63 -48 63 4 0 14 -6 21 -12z m71 -28 c0 -5 -5 -10 -11 -10
-5 0 -7 5 -4 10 3 6 8 10 11 10 2 0 4 -4 4 -10z"/>
<path d="M2360 2581 c0 -11 5 -32 11 -48 l12 -28 9 39 c6 29 5 42 -4 48 -20
12 -28 9 -28 -11z"/>
<path d="M2412 2450 c0 -14 2 -19 5 -12 2 6 2 18 0 25 -3 6 -5 1 -5 -13z"/>
<path d="M3782 2276 c-33 -19 -33 -21 -1 -22 15 -1 26 2 24 7 -3 4 -1 10 4 14
6 3 15 -4 21 -15 8 -14 20 -20 43 -18 l32 1 -32 4 c-19 3 -33 10 -33 18 0 10
-25 29 -33 24 -1 -1 -12 -7 -25 -13z"/>
<path d="M3901 2273 c-13 -14 -7 -16 27 -7 12 4 22 10 22 15 0 12 -35 7 -49
-8z"/>
<path d="M3960 2280 c0 -5 10 -10 23 -10 18 0 19 2 7 10 -19 13 -30 13 -30 0z"/>
<path d="M3953 2253 c9 -2 23 -2 30 0 6 3 -1 5 -18 5 -16 0 -22 -2 -12 -5z"/>
<path d="M3940 2230 c0 -6 12 -15 26 -20 34 -13 34 -13 34 10 0 16 -7 20 -30
20 -16 0 -30 -5 -30 -10z"/>
<path d="M0 2180 c0 -19 4 -21 33 -15 43 9 59 25 25 25 -15 0 -33 3 -42 6 -12
4 -16 0 -16 -16z"/>
<path d="M3935 2180 c3 -5 15 -10 26 -10 11 0 17 5 14 10 -3 6 -15 10 -26 10
-11 0 -17 -4 -14 -10z"/>
<path d="M3984 2129 c-3 -6 -1 -16 5 -22 8 -8 11 -5 11 11 0 24 -5 28 -16 11z"/>
<path d="M3390 2065 c12 -15 0 -22 -14 -7 -11 10 -56 10 -49 -1 2 -4 10 -6 16
-4 6 2 20 -4 29 -13 10 -9 30 -23 45 -31 15 -8 35 -22 45 -31 10 -10 24 -15
33 -12 10 4 13 2 10 -8 -3 -8 6 -25 20 -38 14 -13 25 -19 25 -13 0 5 -8 17
-18 26 -19 17 -22 42 -9 64 4 6 0 13 -8 16 -9 4 -12 1 -8 -9 3 -7 0 -14 -6
-14 -6 0 -12 5 -12 10 -1 6 -2 14 -3 19 -2 16 -16 25 -16 11 0 -9 -10 -4 -27
12 -33 30 -74 48 -53 23z"/>
<path d="M3925 2070 c-4 -6 10 -10 35 -10 25 0 39 4 35 10 -3 6 -19 10 -35 10
-16 0 -32 -4 -35 -10z"/>
<path d="M2290 2039 c0 -5 5 -7 10 -4 6 3 10 8 10 11 0 2 -4 4 -10 4 -5 0 -10
-5 -10 -11z"/>
<path d="M3585 2011 c-3 -5 -1 -12 5 -16 5 -3 10 1 10 9 0 18 -6 21 -15 7z"/>
<path d="M3625 2000 c-3 -5 3 -10 15 -10 12 0 18 5 15 10 -3 6 -10 10 -15 10
-5 0 -12 -4 -15 -10z"/>
<path d="M3705 1990 c-3 -5 -1 -10 4 -10 6 0 11 5 11 10 0 6 -2 10 -4 10 -3 0
-8 -4 -11 -10z"/>
<path d="M993 1973 c9 -2 25 -2 35 0 9 3 1 5 -18 5 -19 0 -27 -2 -17 -5z"/>
<path d="M1051 1951 c-22 -14 7 -24 37 -13 15 6 36 13 47 15 11 3 0 5 -25 6
-25 0 -51 -3 -59 -8z"/>
<path d="M607 1927 c-7 -5 -2 -6 13 -2 24 7 24 7 5 -9 -19 -15 -19 -15 13 -16
21 0 32 5 32 14 0 8 6 16 13 19 6 2 -5 4 -26 4 -20 -1 -43 -5 -50 -10z"/>
<path d="M2280 1920 c-9 -6 -10 -10 -3 -10 6 0 15 5 18 10 8 12 4 12 -15 0z"/>
<path d="M3945 1920 c-3 -5 1 -10 9 -10 9 0 16 5 16 10 0 6 -4 10 -9 10 -6 0
-13 -4 -16 -10z"/>
<path d="M396 1912 c-3 -6 -1 -14 5 -17 14 -9 20 -2 10 14 -6 8 -11 9 -15 3z"/>
<path d="M980 1910 c0 -5 9 -10 21 -10 11 0 17 5 14 10 -3 6 -13 10 -21 10 -8
0 -14 -4 -14 -10z"/>
<path d="M1148 1913 c7 -3 16 -2 19 1 4 3 -2 6 -13 5 -11 0 -14 -3 -6 -6z"/>
<path d="M1190 1910 c-9 -6 -10 -10 -3 -10 6 0 15 5 18 10 8 12 4 12 -15 0z"/>
<path d="M1361 1904 c0 -11 3 -14 6 -6 3 7 2 16 -1 19 -3 4 -6 -2 -5 -13z"/>
<path d="M1090 1900 c0 -5 4 -10 9 -10 6 0 13 5 16 10 3 6 -1 10 -9 10 -9 0
-16 -4 -16 -10z"/>
<path d="M1228 1903 c7 -3 16 -2 19 1 4 3 -2 6 -13 5 -11 0 -14 -3 -6 -6z"/>
<path d="M3980 1900 c0 -5 5 -10 10 -10 6 0 10 5 10 10 0 6 -4 10 -10 10 -5 0
-10 -4 -10 -10z"/>
<path d="M695 1890 c27 -12 35 -12 35 0 0 6 -12 10 -27 9 -25 0 -26 -1 -8 -9z"/>
<path d="M776 1885 c4 -9 0 -15 -9 -15 -17 0 -47 -26 -47 -41 0 -5 7 -9 15 -9
8 0 15 -4 15 -10 0 -5 -12 -10 -26 -10 -19 0 -25 4 -20 15 3 9 0 15 -9 15 -20
0 -19 -16 3 -38 19 -19 76 -20 88 -1 3 5 19 9 35 9 17 0 28 4 24 9 -3 6 -23 9
-44 9 -43 0 -64 8 -56 22 3 5 16 5 31 0 34 -13 71 -13 80 2 4 7 3 8 -5 4 -14
-9 -51 2 -51 15 0 5 21 9 46 9 30 0 43 4 38 11 -4 7 -21 9 -42 6 -19 -4 -43
-2 -53 4 -15 7 -17 6 -13 -6z"/>
<path d="M1940 1878 c0 -15 5 -30 10 -33 6 -4 8 -11 5 -16 -6 -9 24 -71 38
-77 15 -7 7 -23 -10 -20 -21 4 -43 22 -43 37 0 6 -4 11 -10 11 -5 0 -12 11
-16 25 -3 14 -10 22 -15 19 -5 -3 -9 0 -9 5 0 6 -6 11 -13 11 -9 0 -12 -9 -10
-27 3 -20 -4 -36 -22 -56 -14 -15 -30 -25 -36 -22 -5 4 -9 1 -9 -5 0 -6 -6
-10 -13 -8 -14 3 -58 -37 -49 -46 3 -3 -7 -6 -22 -6 -22 0 -26 -3 -21 -19 10
-31 -12 -34 -40 -5 -29 29 -48 25 -22 -4 26 -28 22 -43 -8 -32 l-26 10 18 -25
c17 -22 101 -67 148 -78 15 -4 14 -5 -7 -6 -45 -2 -136 48 -194 106 -14 14
-28 22 -31 19 -3 -3 8 -19 25 -36 34 -32 42 -53 17 -44 -8 4 -15 1 -15 -4 0
-16 73 -82 90 -82 13 0 13 -2 1 -9 -15 -10 -49 10 -105 61 -20 17 -33 23 -37
16 -10 -17 -29 25 -29 66 0 19 5 38 10 41 6 3 10 12 10 18 0 7 -6 4 -14 -5 -7
-10 -15 -16 -17 -13 -3 2 -4 -22 -3 -55 2 -51 0 -60 -17 -65 -30 -10 -23 -20
30 -44 49 -23 74 -42 144 -108 30 -28 37 -41 33 -60 -4 -12 -3 -23 2 -23 5 0
21 -25 37 -56 16 -31 46 -77 67 -102 21 -26 53 -76 72 -112 19 -36 55 -101 81
-145 25 -44 51 -97 57 -118 7 -25 16 -36 25 -33 8 3 13 -2 13 -13 0 -35 40
-134 60 -148 23 -16 26 -33 7 -33 -18 0 -55 44 -63 75 -3 14 -10 25 -16 25 -5
0 -6 -5 -2 -12 5 -7 9 -36 9 -64 1 -42 -2 -53 -16 -57 -27 -7 -41 8 -37 39 6
53 -40 73 -149 65 -17 -1 -34 2 -37 7 -3 5 -17 7 -32 4 -24 -4 -26 -8 -20 -41
3 -20 10 -37 16 -39 21 -7 9 -17 -22 -17 l-33 0 -3 67 c-2 38 -6 68 -10 68 -9
0 -237 -36 -382 -60 -120 -21 -130 -22 -195 -35 -22 -5 -43 -8 -47 -7 -16 4
-141 -27 -147 -36 -3 -5 -16 -8 -28 -7 -12 1 -20 -2 -17 -7 3 -4 -2 -8 -11 -8
-9 0 -13 5 -10 10 3 6 -4 10 -15 10 -16 0 -20 -5 -16 -15 6 -17 -9 -21 -19 -5
-10 17 -48 12 -41 -5 3 -8 1 -15 -4 -15 -6 0 -10 6 -10 13 0 10 -10 12 -32 9
-29 -4 -30 -6 -13 -14 15 -6 11 -7 -13 -3 -18 2 -31 1 -28 -4 3 -5 -1 -11 -9
-15 -8 -3 -15 -1 -15 4 0 6 -10 10 -22 10 -19 0 -20 -2 -8 -11 11 -7 3 -8 -30
-4 -35 5 -42 4 -30 -5 12 -9 10 -11 -12 -7 -15 2 -29 1 -30 -3 -2 -4 -18 -11
-37 -15 -18 -4 -31 -3 -28 1 3 5 -6 10 -20 10 -17 2 -23 -2 -19 -12 4 -10 -8
-13 -52 -13 -73 0 -102 -4 -102 -12 0 -4 -9 -9 -20 -12 -11 -3 -20 -2 -20 3 0
4 -11 7 -24 6 -15 0 -22 -6 -18 -14 3 -10 -2 -11 -22 -6 -14 3 -26 2 -26 -3 0
-13 -33 -12 -42 1 -4 6 -9 4 -14 -7 -3 -9 -13 -17 -20 -17 -11 0 -14 -13 -13
-55 2 -39 6 -55 16 -55 7 0 13 -5 13 -11 0 -5 -4 -8 -9 -4 -16 9 -22 -30 -12
-74 5 -22 5 -41 1 -41 -5 0 -8 -9 -7 -20 2 -24 -1 -23 48 -8 40 11 49 23 27
31 -20 7 5 41 32 45 18 3 20 6 9 13 -11 7 -11 9 4 9 9 0 17 4 17 10 0 5 -7 7
-15 4 -19 -8 -19 6 -1 31 13 18 14 17 20 -12 7 -30 8 -31 36 -17 15 8 31 21
34 29 3 8 12 15 20 15 16 0 15 25 -2 42 -7 7 -12 17 -12 22 0 6 5 5 12 -2 14
-14 64 -16 73 -2 3 5 12 7 21 3 8 -3 12 -8 10 -11 -3 -3 2 -11 12 -18 16 -12
16 -13 0 -14 -9 0 -20 5 -23 10 -3 6 -11 10 -17 10 -7 0 -6 -6 2 -15 17 -20
-4 -20 -24 1 -10 9 -16 11 -16 4 0 -14 40 -49 58 -50 6 0 12 -5 12 -10 0 -6
-13 -4 -31 5 -21 12 -34 13 -43 6 -9 -7 -16 -7 -25 2 -9 9 -13 7 -17 -10 -3
-12 -19 -27 -35 -33 -16 -7 -29 -16 -29 -20 0 -4 -12 -11 -27 -15 -19 -4 -23
-9 -14 -14 9 -6 10 -11 2 -15 -19 -12 -12 -24 10 -19 11 3 25 15 30 27 9 20 9
20 5 -1 -2 -13 0 -23 5 -23 5 0 9 4 9 9 0 4 11 6 25 3 14 -2 25 0 25 6 0 16
-18 24 -22 10 -2 -6 -10 -8 -16 -4 -17 10 -5 26 19 26 10 0 19 5 19 11 0 5 4
8 10 4 5 -3 7 -12 4 -19 -3 -8 -2 -16 3 -19 13 -8 105 13 128 29 11 8 24 14
30 14 5 0 3 -5 -5 -11 -13 -9 -13 -10 0 -6 8 2 16 13 18 25 2 12 8 22 13 22 6
0 7 -5 4 -10 -3 -6 -1 -10 4 -10 6 0 11 5 11 10 0 6 7 10 15 10 9 0 21 12 27
26 8 17 18 24 30 21 10 -3 18 -1 18 3 0 17 43 22 68 9 19 -11 26 -11 29 -2 4
10 7 10 17 0 11 -9 10 -14 -3 -25 -9 -7 -10 -11 -3 -7 6 3 12 1 12 -4 0 -6 9
-11 21 -11 12 0 17 4 13 11 -4 8 0 9 15 4 31 -9 27 19 -5 40 -21 13 -24 19
-13 26 9 6 10 9 2 9 -6 0 -15 -4 -18 -10 -3 -5 -14 -9 -23 -9 -15 1 -15 2 0 6
14 3 16 8 8 23 -6 11 -16 17 -24 14 -13 -5 -46 20 -46 34 0 12 53 31 108 38
54 7 64 1 35 -23 -10 -7 -13 -13 -8 -12 22 3 36 -2 31 -10 -4 -5 0 -11 6 -14
10 -3 10 -8 -1 -21 -13 -15 -13 -19 0 -27 23 -14 26 -11 23 24 -3 27 0 33 16
34 16 1 20 -4 20 -27 0 -16 5 -32 10 -35 6 -4 7 -12 3 -18 -4 -7 0 -6 10 2 16
13 18 35 4 57 -7 12 1 24 16 24 5 0 6 -7 3 -16 -5 -12 -2 -15 10 -10 14 5 15
4 4 -9 -10 -12 -10 -18 0 -30 12 -14 7 -20 -15 -15 -6 1 -6 -3 1 -10 12 -12
47 -3 39 10 -8 14 39 20 50 7 11 -14 49 -11 40 3 -3 5 -1 11 5 15 5 3 10 1 10
-4 0 -12 32 -14 66 -5 23 6 39 60 22 70 -5 3 -6 10 -3 15 9 13 -9 11 -23 -3
-23 -23 -25 3 -2 27 15 16 19 25 10 25 -7 0 -10 3 -7 7 6 5 69 18 125 25 7 1
10 8 7 16 -4 10 0 12 11 8 8 -3 25 -7 37 -7 17 -1 15 -3 -8 -9 l-30 -7 30 -11
c17 -7 37 -16 46 -21 14 -8 17 -5 15 19 -2 31 13 44 41 33 11 -4 14 -3 9 5 -4
7 -2 12 3 12 6 0 11 -9 11 -20 0 -24 35 -28 43 -6 4 9 1 13 -6 10 -7 -2 -18 5
-24 16 -12 18 -9 20 25 29 20 6 67 13 105 16 63 6 67 5 67 -14 0 -17 6 -21 30
-21 32 0 37 -9 18 -28 -9 -9 -7 -12 10 -12 20 0 27 10 23 34 -1 5 5 4 13 -3
14 -11 14 -16 1 -41 -11 -20 -11 -30 -2 -39 17 -17 18 -111 1 -112 -17 -2 -23
-3 -49 -11 -11 -3 -36 -9 -56 -12 l-36 -6 8 -52 c5 -32 4 -57 -2 -67 -8 -13
-9 -13 -5 4 3 11 2 34 -3 50 -7 29 -8 28 -16 -20 -7 -43 -9 -47 -16 -25 -4 14
-7 19 -8 13 -1 -7 -5 -13 -10 -13 -5 0 -7 8 -4 18 3 12 -1 19 -11 19 -11 0
-14 -6 -10 -19 4 -13 1 -16 -9 -12 -8 3 -14 16 -14 29 -1 17 4 22 15 17 12 -4
14 -1 9 12 -4 10 -7 20 -7 22 0 2 -5 4 -11 4 -5 0 -8 -4 -5 -9 4 -5 -2 -7 -12
-4 -15 4 -17 -1 -14 -36 2 -24 0 -41 -6 -41 -6 0 -9 -14 -7 -30 4 -28 2 -29
-16 -19 -16 8 -18 14 -9 24 8 10 8 15 0 20 -6 4 -9 14 -5 22 4 13 3 14 -10 3
-9 -7 -15 -8 -15 -2 0 6 -3 17 -6 26 -5 13 1 16 25 16 17 0 31 5 31 10 0 12 2
12 -39 0 -19 -5 -50 -12 -70 -15 -62 -10 -247 -53 -231 -54 10 -1 16 -10 15
-25 0 -31 -11 -42 -28 -28 -8 7 -16 9 -20 6 -3 -3 -8 4 -12 15 -4 12 -15 21
-26 21 -13 0 -18 -4 -13 -13 5 -9 4 -9 -5 -1 -13 12 -95 -2 -87 -15 2 -3 -17
-4 -42 -2 -42 3 -45 2 -33 -13 10 -12 10 -16 1 -16 -7 0 -10 -7 -6 -15 4 -12
2 -13 -13 -6 -10 6 -20 9 -22 8 -2 -1 2 4 10 11 13 10 13 12 0 12 -8 0 -32 -5
-54 -12 -22 -6 -43 -11 -47 -10 -11 3 3 -30 21 -52 15 -18 15 -19 0 -14 -9 4
-22 2 -30 -3 -9 -6 10 -9 54 -9 47 0 67 4 67 13 0 9 2 9 9 -1 6 -10 46 -13
182 -10 167 3 174 4 173 23 -1 11 -5 29 -10 40 -7 18 -6 18 9 6 9 -7 17 -24
17 -37 0 -13 3 -24 8 -24 21 0 88 24 94 34 5 7 8 6 8 -4 0 -11 3 -10 11 4 8
12 14 15 18 7 5 -8 24 -7 67 5 63 16 71 21 76 43 4 18 30 51 40 51 4 0 0 -16
-8 -35 -14 -35 -14 -35 11 -35 17 0 29 7 35 22 6 15 9 18 9 7 1 -14 8 -15 54
-7 28 5 57 14 63 19 6 5 13 6 16 3 3 -3 26 0 49 6 24 6 61 16 82 21 21 6 37
16 37 24 0 18 -16 20 -23 3 -3 -7 -6 1 -6 19 -1 24 3 31 13 27 8 -3 16 2 19
13 3 10 5 -4 6 -31 1 -39 4 -47 17 -42 9 3 20 6 25 6 5 0 9 12 8 28 l-1 27 -8
-25 c-7 -20 -8 -16 -9 22 -1 38 -4 46 -16 41 -10 -3 -15 0 -13 8 2 9 -4 13
-14 11 -10 -2 -18 2 -18 8 0 5 -1 13 -2 17 -2 4 10 7 27 8 22 0 33 -7 42 -25
11 -22 13 -23 14 -5 1 11 1 27 0 35 0 10 1 11 5 2 3 -6 11 -9 17 -6 8 5 8 2 0
-7 -16 -16 -17 -63 -2 -54 6 4 8 12 6 19 -2 6 11 27 29 46 29 30 34 32 40 16
4 -10 2 -21 -3 -25 -20 -13 -22 -52 -2 -69 14 -12 15 -18 6 -24 -9 -6 -9 -10
2 -17 20 -13 6 -28 -32 -36 -17 -4 -95 -22 -172 -40 -77 -19 -153 -36 -170
-39 -42 -7 -198 -42 -270 -60 -33 -8 -69 -17 -80 -19 -11 -3 100 -5 246 -6
259 -1 267 0 272 19 3 11 13 20 22 20 12 0 15 -5 10 -20 -6 -19 1 -20 688 -20
l693 0 21 22 c11 13 30 42 42 66 23 46 29 50 76 55 17 2 37 7 44 11 8 5 16 4
21 -4 6 -9 12 -9 29 -1 12 7 19 16 16 22 -4 5 0 12 8 15 12 4 13 14 6 45 -7
31 -5 55 11 106 11 36 20 74 20 84 0 11 7 22 15 25 8 4 15 17 15 29 0 13 5 27
10 30 6 3 10 15 10 26 0 11 5 17 10 14 6 -4 8 -15 5 -26 -4 -12 -1 -21 9 -25
19 -7 22 -35 4 -32 -7 2 -11 -4 -9 -12 5 -22 4 -31 -12 -75 -12 -31 -12 -43
-4 -54 10 -12 9 -13 -2 -6 -11 6 -13 2 -9 -19 6 -32 4 -32 -22 -4 -24 26 -25
21 -6 -17 13 -24 13 -31 -1 -51 -8 -13 -13 -29 -11 -36 3 -7 1 -17 -4 -23 -18
-20 -98 -153 -98 -162 0 -1 24 -3 54 -3 l54 0 40 68 c22 37 48 98 58 134 l18
66 50 16 c45 14 325 86 333 86 2 0 3 16 3 35 0 34 -1 35 -27 29 -16 -4 -95
-24 -176 -44 -126 -32 -148 -35 -145 -21 3 16 7 17 48 20 11 0 20 8 20 16 0
18 16 20 23 3 4 -10 8 -10 15 1 7 10 6 19 -4 28 -8 8 -18 23 -24 33 -8 15 -5
19 20 24 17 3 32 5 34 3 1 -1 10 4 19 12 18 14 67 8 67 -9 0 -6 7 -10 16 -10
8 0 12 -5 9 -11 -4 -6 -13 -8 -20 -5 -8 3 -15 -4 -18 -17 -3 -15 -5 -11 -6 11
0 19 -5 31 -11 27 -5 -3 -10 -1 -10 4 0 6 -4 11 -10 11 -5 0 -10 -6 -10 -14 0
-14 -36 -32 -53 -28 -5 1 -6 -2 -2 -8 8 -12 35 -13 35 -1 0 5 9 7 20 4 27 -7
25 -23 -2 -20 -13 1 -23 -4 -25 -14 -3 -14 3 -14 71 0 41 8 73 18 70 22 -2 4
13 9 33 11 l38 3 3 84 c3 77 1 83 -15 77 -10 -4 -32 -9 -49 -11 -16 -3 -68
-13 -115 -25 -46 -11 -92 -20 -102 -20 -17 0 -17 1 0 25 19 26 39 34 30 12 -4
-10 20 -8 102 8 140 29 151 33 151 56 0 11 -10 35 -22 54 -20 31 -27 34 -53
29 -16 -4 -31 -10 -33 -14 -1 -4 -14 -5 -29 -2 -17 3 -24 1 -19 -6 4 -6 -2 -8
-14 -5 -11 3 -20 0 -20 -6 0 -6 -7 -11 -15 -11 -9 0 -12 -6 -9 -15 4 -8 1 -15
-5 -15 -6 0 -11 6 -12 13 0 6 -5 2 -11 -10 -20 -41 -29 -24 -26 49 l3 73 48 9
c44 8 66 26 32 26 -9 0 -15 6 -14 13 3 26 -1 38 -13 31 -8 -5 -9 -2 -5 10 4
10 7 21 7 26 0 15 39 18 57 4 16 -12 14 -13 -16 -7 l-33 6 17 -26 c9 -14 16
-29 15 -32 -1 -4 1 -9 4 -12 3 -4 6 5 6 20 0 20 5 25 20 24 11 -1 20 -5 20 -9
0 -4 3 -8 8 -7 4 1 17 -2 30 -6 16 -5 21 -13 17 -24 -3 -10 1 -8 12 5 10 12
24 23 32 26 8 2 16 15 18 29 2 17 1 20 -6 10 -8 -12 -11 -12 -25 1 -8 9 -14
17 -13 19 1 2 -5 -3 -13 -12 -19 -22 -57 -33 -65 -19 -3 5 -1 10 6 10 9 0 9 3
0 14 -12 14 10 20 97 29 18 2 22 8 22 35 0 38 7 37 -140 12 -72 -12 -119 -15
-124 -9 -6 5 -1 9 13 9 18 0 22 4 18 19 -3 14 2 21 17 25 30 8 36 7 36 -5 0
-6 -7 -9 -15 -6 -16 7 -30 -8 -16 -17 13 -8 101 5 96 14 -3 5 4 6 15 3 11 -3
28 -2 37 2 10 5 26 7 36 6 23 -3 22 20 -2 26 -19 5 -35 46 -29 74 2 10 -5 13
-24 11 -22 -3 -30 2 -39 22 -15 31 -15 31 -60 7 -23 -13 -41 -16 -50 -10 -26
16 -45 10 -21 -7 23 -16 23 -17 5 -35 -47 -50 -105 -99 -116 -99 -7 0 -6 5 1
12 15 15 15 26 0 25 -52 -2 -58 2 -46 29 10 20 9 27 -2 34 -12 7 -12 10 3 16
9 3 14 11 10 17 -4 6 -8 29 -9 50 -1 21 -4 41 -7 44 -3 2 -1 18 3 34 5 16 6
29 2 29 -4 0 -5 57 -3 127 3 118 1 135 -25 216 -18 55 -32 86 -40 83 -6 -2
-16 0 -21 5 -6 6 -8 -28 -6 -90 2 -59 -1 -102 -7 -106 -10 -6 -11 4 -12 85 0
25 -4 50 -10 57 -6 7 -5 14 2 18 15 9 12 22 -6 29 -15 6 -16 -3 -12 -73 5 -94
-6 -129 -15 -46 -6 63 -12 74 -29 57 -8 -8 -8 -15 -1 -24 6 -7 10 -33 9 -58
-1 -42 -3 -45 -31 -48 -45 -6 -54 -18 -49 -69 2 -26 6 -49 9 -51 3 -3 0 -12
-7 -19 -8 -10 -8 -17 -1 -21 5 -4 20 -38 33 -77 18 -55 25 -65 31 -50 6 17 8
16 8 -7 1 -41 -34 -38 -48 3 -9 26 -15 30 -35 25 -16 -4 -26 -1 -30 10 -3 8
-10 13 -15 10 -5 -4 -12 0 -14 6 -4 9 -6 10 -6 1 -1 -6 4 -15 9 -18 6 -3 10
-16 10 -28 0 -22 -1 -22 -20 3 -11 14 -18 33 -16 43 5 20 -5 22 -23 5 -10 -11
-15 -10 -24 3 -7 9 -21 19 -32 22 -13 3 -8 5 13 6 24 1 31 -2 26 -11 -4 -7 1
-6 12 3 10 9 26 14 34 12 13 -4 13 -3 0 6 -8 6 -10 11 -4 11 15 0 26 28 17 43
-4 7 -9 3 -14 -9 -7 -17 -8 -17 -8 4 -1 26 -21 30 -22 5 0 -17 -1 -17 -7 -1
-9 23 -37 6 -37 -23 0 -18 -6 -22 -37 -24 -21 -2 -38 0 -38 4 0 13 -58 42 -65
31 -3 -5 -14 -10 -24 -10 -10 0 -23 -11 -29 -24 -9 -20 -7 -28 8 -46 10 -12
24 -19 29 -16 6 4 24 0 41 -9 23 -12 35 -13 45 -5 9 8 14 6 19 -6 4 -10 13
-14 26 -11 11 3 18 1 14 -4 -7 -13 -57 -11 -91 2 -15 7 -48 13 -73 14 -25 1
-81 9 -125 19 -68 15 -107 16 -257 10 -130 -5 -178 -3 -178 5 0 16 -30 13 -36
-4 -5 -12 -28 -15 -128 -13 -97 2 -105 3 -40 5 73 3 82 6 87 25 4 15 11 19 27
15 18 -5 19 -3 8 10 -10 12 -9 17 5 28 11 8 14 16 8 19 -5 4 -12 2 -16 -4 -9
-15 -25 -12 -25 5 0 8 -6 12 -14 9 -17 -6 -31 12 -16 21 18 11 11 38 -9 32
-15 -3 -17 0 -13 17 3 11 10 27 16 35 9 12 8 13 -4 6 -29 -18 -38 -13 -46 24
-4 20 -7 43 -6 51 1 10 0 11 -4 3 -8 -18 -24 -16 -24 2 0 8 5 15 10 15 18 0
11 20 -7 21 -13 0 -14 2 -4 6 10 4 5 10 -15 19 -16 8 -20 12 -8 9 18 -5 20 -2
16 25 -3 21 0 30 9 30 9 0 10 3 3 8 -15 10 -26 59 -15 66 4 3 8 16 7 28 -1 21
-6 23 -51 21 -28 -1 -53 3 -57 10 -4 7 -12 7 -25 -4 -16 -13 -17 -12 -5 3 19
24 -1 30 -22 6 -14 -16 -25 -19 -49 -14 -18 3 -38 14 -44 23 -12 15 -13 14
-13 -9z m218 -53 c-3 -3 -9 2 -12 12 -6 14 -5 15 5 6 7 -7 10 -15 7 -18z
m1239 -327 c-3 -8 -6 -5 -6 6 -1 11 2 17 5 13 3 -3 4 -12 1 -19z m16 -48 c3
-11 1 -20 -4 -20 -5 0 -9 9 -9 20 0 11 2 20 4 20 2 0 6 -9 9 -20z m4 -107 c-2
-16 -4 -3 -4 27 0 30 2 43 4 28 2 -16 2 -40 0 -55z m-187 39 c0 -15 -11 -21
-27 -15 -12 5 -12 7 -1 14 17 11 28 11 28 1z m-980 -44 c0 -5 -11 -8 -25 -8
-14 0 -25 4 -25 9 0 5 11 8 25 7 14 0 25 -4 25 -8z m890 8 c0 -11 -19 -15 -25
-6 -3 5 1 10 9 10 9 0 16 -2 16 -4z m93 -72 c-3 -8 -17 -13 -32 -13 -20 1 -22
2 -6 6 28 7 43 23 21 23 -9 0 -14 5 -11 10 10 16 35 -8 28 -26z m-1253 7 c0
-8 -56 -21 -94 -21 -32 0 -8 13 37 21 23 3 45 7 50 8 4 0 7 -3 7 -8z m1857
-117 c-3 -3 -12 -4 -19 -1 -8 3 -5 6 6 6 11 1 17 -2 13 -5z m-1837 -34 c0 -5
-4 -10 -10 -10 -5 0 -10 5 -10 10 0 6 5 10 10 10 6 0 10 -4 10 -10z m-163 -30
c1 -11 0 -20 -2 -20 -2 0 -9 9 -15 20 -8 15 -8 20 3 20 7 0 13 -9 14 -20z
m173 -4 c0 -22 -13 -26 -27 -8 -13 16 -14 15 -8 -5 7 -25 -12 -32 -32 -12 -14
14 -33 3 -33 -18 0 -12 3 -13 14 -4 20 17 27 -9 8 -29 -11 -10 -17 -11 -19 -3
-3 7 -11 9 -19 6 -8 -3 -14 0 -14 7 0 6 -4 8 -10 5 -5 -3 -10 -1 -10 4 0 6 6
11 13 11 8 0 7 3 -3 10 -16 10 -12 12 42 24 15 4 33 12 40 19 14 16 58 10 58
-7z m7 -48 c-3 -8 -6 -5 -6 6 -1 11 2 17 5 13 3 -3 4 -12 1 -19z m1913 13 c0
-5 -9 -7 -20 -4 -11 3 -20 7 -20 9 0 2 9 4 20 4 11 0 20 -4 20 -9z m-1945 -21
c3 -5 -1 -10 -10 -10 -9 0 -13 5 -10 10 3 6 8 10 10 10 2 0 7 -4 10 -10z m-75
-37 c-1 -14 -30 -47 -36 -41 -6 7 17 48 28 48 5 0 8 -3 8 -7z m20 -58 c-7 -9
-15 -13 -19 -10 -3 3 1 10 9 15 21 14 24 12 10 -5z m1475 -6 c-8 -12 -45 -12
-45 0 0 10 30 20 43 14 4 -3 5 -9 2 -14z m292 -50 c-8 -35 -12 -38 -36 -33
-25 6 -25 6 -6 -9 16 -12 17 -18 8 -28 -10 -10 -14 -7 -22 13 -12 32 -3 69 21
86 10 7 18 20 18 29 0 15 2 14 14 -2 10 -14 11 -28 3 -56z m83 31 c0 -5 -7
-10 -16 -10 -8 0 -12 5 -9 10 3 6 10 10 16 10 5 0 9 -4 9 -10z m178 -31 c-7
-5 -22 -9 -33 -9 -19 1 -19 1 -2 15 11 7 26 11 34 8 12 -5 12 -7 1 -14z
m-1948 1 c0 -5 -7 -10 -15 -10 -8 0 -15 -5 -15 -12 0 -6 -3 -8 -7 -4 -5 4 1
14 11 22 23 17 26 17 26 4z m1770 -22 c0 -5 -9 -8 -20 -8 -22 0 -28 26 -7 33
12 4 27 -10 27 -25z m-1825 12 c3 -5 2 -10 -4 -10 -5 0 -13 5 -16 10 -3 6 -2
10 4 10 5 0 13 -4 16 -10z m1442 -42 c-3 -8 -6 -5 -6 6 -1 11 2 17 5 13 3 -3
4 -12 1 -19z m22 -130 c-1 -45 -10 -62 -36 -66 -26 -4 -28 5 -11 59 8 27 17
39 30 39 14 0 18 -7 17 -32z m438 -20 c-3 -8 -6 -5 -6 6 -1 11 2 17 5 13 3 -3
4 -12 1 -19z m-107 -48 c0 -5 -5 -10 -11 -10 -5 0 -7 5 -4 10 3 6 8 10 11 10
2 0 4 -4 4 -10z m-345 -78 c3 -8 0 -21 -7 -29 -9 -11 -9 -16 2 -23 16 -10 6
-16 -35 -22 -26 -4 -33 31 -10 49 15 10 16 15 5 28 -11 13 -9 15 14 13 14 -1
28 -9 31 -16z m565 -62 c0 -5 -5 -10 -11 -10 -5 0 -7 5 -4 10 3 6 8 10 11 10
2 0 4 -4 4 -10z m-2663 -16 c-3 -3 -12 -4 -19 -1 -8 3 -5 6 6 6 11 1 17 -2 13
-5z m684 -18 c5 3 9 -1 9 -10 0 -8 5 -16 11 -18 22 -7 -1 -46 -34 -58 -18 -6
-80 -24 -138 -39 l-107 -27 3 46 c1 26 7 55 12 64 8 14 12 10 22 -24 7 -23 19
-44 27 -47 17 -6 46 15 38 29 -4 6 8 7 29 3 21 -4 37 -3 41 4 4 6 22 11 40 11
48 0 76 33 36 43 -14 4 -18 10 -13 23 4 11 8 13 11 6 2 -7 8 -10 13 -6z m1396
-68 c-3 -8 -6 -5 -6 6 -1 11 2 17 5 13 3 -3 4 -12 1 -19z m-2810 -50 c-3 -8
-6 -5 -6 6 -1 11 2 17 5 13 3 -3 4 -12 1 -19z m-302 -38 c-3 -5 -10 -10 -16
-10 -5 0 -9 5 -9 10 0 6 7 10 16 10 8 0 12 -4 9 -10z m-73 -7 c-6 -2 -9 -9 -6
-15 4 -6 1 -9 -7 -6 -8 3 -19 -4 -26 -16 -12 -20 -12 -20 -13 6 0 20 6 28 23
31 31 6 44 6 29 0z m1799 -46 c-17 -17 -22 -2 -9 29 11 28 12 29 16 5 2 -13
-1 -28 -7 -34z m-244 22 c2 -17 -1 -18 -12 -9 -8 7 -12 16 -9 21 9 16 20 10
21 -12z m33 -23 c0 -26 -6 -18 -14 19 -5 22 -4 26 4 15 5 -8 10 -24 10 -34z
m-97 14 c-4 -15 -2 -19 10 -15 12 5 13 -1 6 -41 -11 -60 -24 -74 -15 -16 3 23
2 42 -3 42 -7 0 -17 -30 -23 -76 -3 -21 -28 -10 -28 12 0 12 -5 24 -11 26 -13
4 -2 78 12 78 5 0 9 -6 9 -12 0 -7 5 -5 11 5 14 24 38 22 32 -3z m-1577 -13
c4 -4 2 -7 -5 -7 -7 0 -9 -4 -6 -10 9 -14 -7 -12 -27 4 -10 7 -15 16 -11 19 7
8 40 4 49 -6z m1475 -9 c1 -22 1 -22 9 2 7 22 8 21 9 -12 1 -21 -2 -38 -5 -38
-13 0 -34 30 -34 49 0 28 20 27 21 -1z m146 -30 c-3 -8 -6 -5 -6 6 -1 11 2 17
5 13 3 -3 4 -12 1 -19z m-1357 2 c0 -5 -4 -10 -10 -10 -5 0 -10 5 -10 10 0 6
5 10 10 10 6 0 10 -4 10 -10z m930 -18 c0 -4 -7 -18 -16 -30 -10 -15 -11 -22
-3 -20 11 3 14 -16 10 -65 -1 -14 -4 -15 -19 -6 -16 10 -18 19 -11 53 8 47 5
57 -19 50 -9 -2 -3 2 13 10 35 17 45 19 45 8z m-963 -38 c0 -21 -11 -16 -23
10 -10 22 -10 23 6 14 9 -6 17 -17 17 -24z m-297 11 c11 -13 10 -14 -4 -9 -9
3 -16 10 -16 15 0 13 6 11 20 -6z m1122 -44 c-3 -9 -1 -12 6 -7 7 4 13 19 13
34 1 17 3 21 6 10 2 -10 9 -18 14 -18 5 0 8 -19 7 -42 l-1 -43 -4 38 c-4 35
-6 38 -21 25 -9 -8 -29 -19 -43 -25 -24 -10 -26 -9 -26 12 0 17 4 21 18 18 11
-3 19 0 19 6 0 7 -5 9 -11 6 -6 -4 -5 2 3 14 12 19 13 19 19 3 3 -9 4 -23 1
-31z m-52 29 c0 -5 -4 -10 -10 -10 -5 0 -10 5 -10 10 0 6 5 10 10 10 6 0 10
-4 10 -10z m-20 -30 c0 -5 -4 -10 -9 -10 -6 0 -13 5 -16 10 -3 6 1 10 9 10 9
0 16 -4 16 -10z m90 -47 c0 -18 -27 -16 -33 1 -4 10 0 14 14 13 10 -1 19 -7
19 -14z m-254 -22 c-3 -5 1 -11 9 -15 8 -3 19 3 24 12 9 14 10 13 11 -10 0
-28 -13 -37 -25 -18 -4 6 -16 8 -28 5 -17 -5 -19 -4 -7 4 13 9 12 11 -5 11
-17 0 -17 2 -5 10 19 12 33 13 26 1z m110 -20 c-1 -29 -16 -33 -16 -5 0 8 -4
12 -10 9 -5 -3 -10 -2 -10 4 0 8 15 18 31 20 3 1 6 -12 5 -28z m-296 2 c0 -10
-4 -14 -8 -8 -4 6 -11 13 -16 18 -5 4 -2 7 7 7 10 0 17 -8 17 -17z m440 7 c0
-5 -5 -10 -11 -10 -5 0 -7 5 -4 10 3 6 8 10 11 10 2 0 4 -4 4 -10z m30 -5 c0
-8 -2 -15 -4 -15 -2 0 -6 7 -10 15 -3 8 -1 15 4 15 6 0 10 -7 10 -15z m-90
-20 c0 -8 -2 -15 -4 -15 -2 0 -6 7 -10 15 -3 8 -1 15 4 15 6 0 10 -7 10 -15z"/>
<path d="M2277 1894 c-9 -10 2 -24 19 -24 8 0 14 7 14 15 0 15 -21 21 -33 9z"/>
<path d="M500 1880 c0 -14 17 -21 34 -14 24 9 19 19 -9 20 -14 1 -25 -2 -25
-6z"/>
<path d="M292 1863 c2 -10 -3 -17 -9 -15 -7 1 -13 -3 -13 -9 0 -6 8 -8 19 -4
13 4 23 0 30 -12 6 -10 11 -12 11 -6 0 8 10 11 30 7 18 -4 36 -1 45 6 13 11
14 10 9 -3 -5 -14 -2 -14 20 -4 l25 12 -26 7 c-15 4 -32 4 -37 -1 -6 -5 -28
-6 -48 -4 -29 4 -38 10 -38 24 0 10 -5 19 -10 19 -6 0 -10 -8 -8 -17z"/>
<path d="M1023 1855 c-10 -23 -9 -25 15 -24 15 0 21 3 15 6 -7 2 -13 11 -13
19 0 9 4 13 9 9 5 -3 12 -1 16 5 3 5 -2 10 -12 10 -10 0 -23 -11 -30 -25z"/>
<path d="M210 1860 c20 -13 43 -13 35 0 -3 6 -16 10 -28 10 -18 0 -19 -2 -7
-10z"/>
<path d="M1308 1863 c6 -2 18 -2 25 0 6 3 1 5 -13 5 -14 0 -19 -2 -12 -5z"/>
<path d="M688 1853 c7 -3 16 -2 19 1 4 3 -2 6 -13 5 -11 0 -14 -3 -6 -6z"/>
<path d="M946 1849 c4 -8 -4 -9 -27 -4 l-34 6 25 -20 c20 -16 26 -17 33 -6 4
8 15 11 25 8 16 -6 16 -6 0 10 -19 19 -33 23 -22 6z"/>
<path d="M1148 1849 c-23 -13 -23 -29 -1 -29 9 0 13 3 10 7 -4 3 -2 12 4 20
13 15 10 16 -13 2z"/>
<path d="M1177 1840 c-3 -11 -4 -20 -3 -20 1 0 9 9 19 20 13 15 14 20 3 20 -7
0 -16 -9 -19 -20z"/>
<path d="M200 1839 c0 -5 5 -7 10 -4 6 3 10 8 10 11 0 2 -4 4 -10 4 -5 0 -10
-5 -10 -11z"/>
<path d="M487 1839 c7 -7 15 -10 18 -7 3 3 -2 9 -12 12 -14 6 -15 5 -6 -5z"/>
<path d="M578 1843 c7 -3 16 -2 19 1 4 3 -2 6 -13 5 -11 0 -14 -3 -6 -6z"/>
<path d="M620 1840 c0 -5 9 -10 19 -10 11 0 23 5 26 10 4 6 -5 10 -19 10 -14
0 -26 -4 -26 -10z"/>
<path d="M3295 1840 c3 -5 10 -10 16 -10 5 0 9 5 9 10 0 6 -7 10 -16 10 -8 0
-12 -4 -9 -10z"/>
<path d="M3445 1840 c-3 -5 -1 -10 4 -10 6 0 11 5 11 10 0 6 -2 10 -4 10 -3 0
-8 -4 -11 -10z"/>
<path d="M3945 1840 c-3 -5 1 -10 10 -10 9 0 13 5 10 10 -3 6 -8 10 -10 10 -2
0 -7 -4 -10 -10z"/>
<path d="M1290 1820 c0 -5 5 -10 10 -10 6 0 10 5 10 10 0 6 -4 10 -10 10 -5 0
-10 -4 -10 -10z"/>
<path d="M3991 1814 c0 -11 3 -14 6 -6 3 7 2 16 -1 19 -3 4 -6 -2 -5 -13z"/>
<path d="M550 1810 c0 -5 9 -10 21 -10 11 0 17 5 14 10 -3 6 -13 10 -21 10 -8
0 -14 -4 -14 -10z"/>
<path d="M600 1810 c0 -5 7 -10 15 -10 8 0 15 5 15 10 0 6 -7 10 -15 10 -8 0
-15 -4 -15 -10z"/>
<path d="M970 1810 c0 -5 18 -10 41 -10 22 0 38 4 35 8 -7 12 -76 14 -76 2z"/>
<path d="M3450 1804 c0 -8 5 -12 10 -9 6 3 10 10 10 16 0 5 -4 9 -10 9 -5 0
-10 -7 -10 -16z"/>
<path d="M2510 1800 c0 -5 5 -10 10 -10 6 0 10 5 10 10 0 6 -4 10 -10 10 -5 0
-10 -4 -10 -10z"/>
<path d="M3502 1793 c4 -21 33 -25 33 -3 0 8 -8 16 -18 18 -14 3 -18 -1 -15
-15z"/>
<path d="M516 1787 c3 -10 9 -15 12 -12 3 3 0 11 -7 18 -10 9 -11 8 -5 -6z"/>
<path d="M627 1789 c-10 -6 -23 -8 -30 -6 -7 2 -21 -3 -31 -12 -16 -13 -18
-13 -11 -1 8 13 6 13 -8 1 -9 -7 -24 -10 -34 -7 -15 6 -15 5 2 -14 19 -21 50
-27 60 -10 3 5 12 7 20 3 8 -3 15 -1 15 5 0 6 -6 13 -12 15 -17 7 62 -2 85 -9
9 -3 17 -1 17 5 0 6 -7 11 -15 11 -9 0 -18 7 -21 15 -7 18 -13 18 -37 4z"/>
<path d="M1159 1787 c6 -8 8 -17 4 -20 -9 -9 7 -8 32 3 19 8 19 9 -2 9 -13 1
-23 6 -23 11 0 6 -5 10 -11 10 -8 0 -9 -4 0 -13z"/>
<path d="M383 1773 c14 -14 19 -15 29 -4 11 10 10 11 -4 6 -11 -4 -18 -2 -18
4 0 6 -5 11 -12 11 -8 0 -6 -6 5 -17z"/>
<path d="M935 1772 c-16 -8 -32 -19 -33 -24 -2 -5 -10 -4 -18 3 -8 6 -26 9
-40 6 -15 -2 -39 -1 -53 3 -14 4 -35 4 -46 -1 -17 -7 -16 -8 8 -8 37 -1 35
-21 -3 -21 -16 0 -30 -4 -30 -9 0 -16 36 -22 65 -11 20 8 26 7 23 -2 -4 -12
-21 -23 -50 -32 -14 -4 -15 -9 -5 -30 7 -14 19 -27 27 -30 8 -2 2 -4 -13 -5
-21 -1 -30 5 -34 18 -5 19 -33 19 -33 -1 0 -5 5 -6 10 -3 6 3 10 1 10 -5 0 -7
-8 -9 -20 -6 -11 3 -29 8 -39 11 -25 8 -37 -12 -12 -20 10 -3 23 -5 27 -4 25
4 44 -3 44 -17 0 -13 -2 -13 -17 2 -17 16 -18 16 -21 1 -2 -9 -10 -17 -17 -17
-7 0 -21 -3 -31 -7 -13 -5 -16 -3 -11 10 5 14 2 16 -21 11 -39 -10 -46 -15
-31 -25 10 -6 8 -9 -7 -9 -21 0 -34 17 -34 45 0 8 9 13 19 12 11 0 17 -5 14
-11 -4 -5 1 -7 11 -3 10 4 20 7 22 7 3 0 2 5 -1 10 -3 6 1 10 9 10 9 0 16 5
16 10 0 6 16 10 35 10 19 0 35 5 35 11 0 6 -7 9 -15 6 -8 -4 -17 -2 -20 3 -4
6 2 10 12 11 11 0 13 3 5 6 -7 3 -18 0 -25 -5 -7 -6 -19 -7 -26 -3 -14 9 17
21 55 21 13 0 24 8 27 20 4 15 0 20 -15 20 -10 0 -29 5 -40 11 -20 11 -21 9
-15 -19 5 -25 2 -31 -16 -37 -12 -4 -31 -6 -42 -6 -17 2 -15 -1 8 -17 l28 -19
-23 -8 c-30 -9 -71 -6 -79 7 -4 7 -9 6 -13 -1 -9 -14 -26 -4 -26 15 0 8 4 12
10 9 6 -3 7 1 4 9 -4 10 1 18 10 22 13 5 14 9 5 20 -15 19 -33 18 -25 -1 9
-24 -4 -46 -25 -40 -11 4 -26 -2 -39 -15 -11 -11 -26 -18 -32 -14 -7 5 -8 3
-3 -6 6 -9 2 -10 -16 -5 -13 4 -29 12 -35 16 -7 6 -14 5 -17 -3 -6 -15 -124
-54 -134 -45 -3 4 1 7 10 7 9 0 17 5 17 10 0 12 -53 1 -58 -11 -2 -5 -16 -2
-31 5 -17 10 -32 11 -42 5 -24 -15 -59 -11 -53 6 4 8 1 15 -5 15 -7 0 -11 -20
-11 -50 0 -37 4 -50 14 -50 8 0 18 -5 22 -11 4 -8 0 -9 -15 -4 -12 4 -21 2
-21 -4 0 -6 5 -11 11 -11 6 0 9 -7 5 -15 -4 -10 1 -15 14 -15 11 0 20 4 20 9
0 5 11 9 25 9 20 0 25 -6 25 -24 0 -13 -4 -24 -10 -24 -5 0 -10 7 -10 15 0 13
-4 14 -21 4 -12 -6 -30 -9 -40 -6 -16 4 -19 0 -19 -29 0 -20 5 -34 13 -34 8 0
7 -4 -3 -10 -12 -8 -10 -10 10 -11 l25 -1 -25 -7 -25 -8 25 -5 c23 -5 23 -5 3
-7 -21 -1 -23 -6 -23 -65 0 -39 5 -68 12 -72 6 -4 37 -9 67 -11 101 -6 116 -8
119 -18 2 -5 -6 -12 -17 -15 -14 -3 -18 -9 -12 -18 11 -19 41 -11 55 13 18 33
16 32 119 26 5 -1 6 -5 3 -10 -7 -10 16 -21 44 -21 10 0 27 11 38 25 23 29 37
31 59 10 17 -18 44 -16 51 3 2 7 -6 12 -22 12 -16 0 -26 6 -26 15 0 8 -6 15
-14 15 -8 0 -16 6 -19 14 -4 10 6 16 38 21 43 6 44 7 40 41 -6 40 14 47 36 13
l14 -21 25 21 c14 11 19 20 13 21 -7 0 -13 8 -13 18 0 14 9 17 57 17 46 0 57
-3 59 -17 1 -10 -3 -21 -8 -25 -6 -3 -8 -1 -5 4 9 14 -33 22 -59 12 -18 -7
-18 -8 -1 -8 26 -1 16 -24 -14 -32 -22 -7 -22 -7 6 -8 17 -1 37 -7 44 -13 10
-11 15 -9 26 5 13 18 13 18 18 0 4 -16 5 -16 6 0 1 20 17 23 24 5 3 -10 9 -10
25 -1 17 10 24 10 36 -3 9 -8 30 -16 47 -16 16 -1 26 -4 21 -7 -4 -3 -11 -14
-15 -23 -8 -22 -22 -22 -77 -3 -66 23 -86 16 -61 -23 7 -12 12 -12 30 0 18 11
26 11 52 -4 22 -13 35 -15 49 -8 10 6 23 10 29 10 18 0 12 -18 -6 -23 -10 -2
5 -3 32 -2 79 3 85 4 83 16 -2 6 3 14 10 16 6 3 12 -2 12 -11 0 -10 8 -16 23
-15 16 1 18 2 5 6 -19 5 -25 23 -7 23 5 0 7 5 4 10 -3 6 4 11 17 11 13 1 1 7
-25 13 -27 6 -45 14 -41 18 4 4 -7 15 -25 25 -30 18 -40 33 -22 33 5 0 16 -6
23 -12 14 -14 111 -18 124 -5 4 4 22 7 40 7 18 0 36 5 40 11 4 8 9 7 15 -2 7
-11 11 -11 17 -2 4 6 16 11 27 10 11 -1 24 8 33 23 l14 25 -6 -27 c-5 -20 -2
-28 8 -28 8 0 16 -7 20 -15 8 -23 -27 -36 -71 -27 -21 4 -56 5 -78 1 l-40 -6
40 -3 c22 -2 51 -3 65 -4 15 -1 25 -7 25 -16 0 -11 -9 -14 -32 -13 -17 2 -35
-2 -39 -9 -4 -7 -3 -8 4 -4 7 4 12 1 12 -6 0 -8 14 -14 35 -15 27 -2 33 0 29
12 -6 15 5 18 51 16 11 0 14 2 8 5 -7 3 -13 13 -13 22 1 13 7 9 25 -12 23 -29
23 -30 4 -47 -10 -9 -19 -21 -19 -26 0 -6 -15 -15 -32 -21 -18 -7 -22 -10 -9
-8 26 5 71 -12 71 -27 0 -6 9 -2 20 8 11 10 22 16 25 14 8 -8 -7 -49 -16 -43
-5 3 -9 1 -9 -5 0 -18 -154 -47 -355 -66 -33 -3 -98 -10 -145 -15 -252 -29
-703 -73 -756 -74 -45 -1 -57 -4 -47 -11 10 -8 3 -10 -26 -7 -41 4 -41 4 -40
-29 1 -19 3 -26 6 -17 2 9 12 17 21 17 37 -1 157 26 164 36 5 6 8 5 8 -4 0 -8
6 -11 17 -6 10 3 39 9 65 11 l47 5 -4 -31 c-2 -22 1 -30 11 -30 8 0 12 -5 9
-11 -4 -6 -13 -8 -21 -5 -8 3 -14 0 -14 -7 0 -8 -3 -8 -8 -2 -4 6 -24 11 -45
10 -30 0 -39 -4 -43 -22 -6 -23 11 -63 26 -63 5 0 14 9 20 20 6 11 20 20 30
20 11 0 20 5 20 10 0 7 6 7 19 0 13 -6 17 -17 14 -30 -5 -18 -7 -18 -26 -5
-12 8 -28 15 -37 14 -10 0 -11 -2 -2 -6 6 -2 12 -9 12 -15 0 -6 -6 -8 -14 -5
-15 6 -16 -9 -2 -32 7 -10 4 -12 -13 -6 -11 3 -29 2 -38 -4 -16 -9 -15 -10 8
-11 14 0 36 -11 50 -26 22 -24 23 -26 4 -24 -33 4 -47 1 -40 -9 3 -5 21 -7 40
-4 43 7 46 -4 4 -19 -18 -6 -28 -16 -25 -23 3 -9 -2 -11 -16 -7 -14 3 -19 1
-14 -6 5 -8 -1 -12 -14 -12 -12 0 -19 -4 -15 -10 3 -5 13 -7 23 -4 10 4 13 3
6 -3 -6 -4 -13 -16 -17 -25 -5 -14 0 -16 31 -12 20 3 39 8 42 12 3 5 16 9 29
9 13 1 31 9 40 18 15 15 14 16 -1 9 -10 -3 -18 -2 -18 4 0 10 67 8 117 -3 12
-3 25 -1 28 5 3 5 13 10 21 10 9 0 12 -5 8 -11 -3 -6 0 -16 7 -21 10 -7 7 -7
-8 -3 -16 4 -23 2 -24 -7 0 -7 -2 -21 -4 -31 -2 -13 1 -17 11 -13 17 7 19 -10
2 -18 -7 -3 -3 -3 9 -1 12 3 24 1 28 -5 3 -5 -1 -10 -9 -10 -9 0 -16 -5 -16
-11 0 -12 -2 -12 180 21 58 10 122 21 143 25 28 4 37 11 37 26 0 11 5 17 10
14 6 -4 8 -11 5 -16 -4 -5 5 -9 19 -9 14 0 26 5 26 12 0 8 3 9 10 2 12 -12 70
-6 70 8 0 5 5 6 10 3 6 -3 13 1 16 10 6 14 9 14 30 1 18 -13 33 -14 81 -5 32
5 65 13 73 16 8 3 39 7 69 8 29 2 56 7 60 11 3 5 31 10 61 12 30 2 57 8 61 14
4 6 12 7 18 4 6 -4 46 -2 90 5 l79 12 -9 31 c-5 17 -10 84 -12 148 -2 100 -6
121 -23 140 -11 13 -33 43 -49 67 -16 24 -35 45 -42 48 -7 3 -13 12 -13 19 0
8 -7 17 -15 20 -8 4 -15 12 -15 20 0 8 -4 14 -8 14 -11 0 -34 47 -39 80 -2 14
-8 27 -14 28 -5 2 -9 12 -9 23 0 10 -4 19 -10 19 -5 0 -10 11 -10 24 0 27 -26
41 -54 30 -11 -4 -16 -1 -16 11 0 15 -7 17 -45 12 -27 -4 -45 -3 -45 3 0 5
-22 1 -50 -10 -27 -11 -50 -15 -50 -10 0 6 7 10 16 10 14 0 14 2 3 16 -11 14
-10 16 11 14 36 -3 67 1 53 7 -7 2 -13 11 -13 18 0 15 -34 26 -47 15 -14 -13
-83 -22 -83 -10 0 5 -4 10 -10 10 -5 0 -9 -6 -7 -12 1 -8 -8 -12 -25 -10 -16
2 -28 -1 -28 -8 0 -6 -5 -8 -10 -5 -6 4 -8 9 -6 13 2 4 -11 7 -30 8 -20 0 -34
-4 -34 -12 0 -6 -9 -14 -19 -17 -13 -3 -19 -13 -18 -31 1 -16 7 -24 15 -21 6
2 12 -3 12 -11 0 -9 -13 -21 -30 -27 -16 -6 -30 -15 -30 -20 0 -5 7 -7 15 -3
8 3 15 1 15 -4 0 -26 -67 9 -75 39 -5 20 -10 22 -36 17 -26 -5 -28 -3 -21 12
5 9 7 22 5 28 -2 7 8 15 22 18 24 6 27 26 4 26 -6 0 -7 -4 -4 -10 6 -10 -13
-14 -49 -10 -10 1 -35 -1 -54 -5 -26 -5 -32 -9 -22 -15 8 -5 11 -12 8 -15 -11
-11 -28 5 -28 25 0 18 12 21 98 22 12 0 22 4 22 8 0 4 12 11 26 14 41 11 23
16 -19 6 -32 -7 -37 -6 -35 9 3 17 17 31 31 31 5 0 6 -4 3 -9 -3 -4 12 -8 34
-8 22 0 40 4 40 9 0 6 19 9 43 7 23 -1 50 1 61 6 11 5 26 4 37 -3 25 -16 30
-15 27 6 -2 12 4 17 25 18 16 1 27 -4 27 -12 0 -17 14 -18 40 -4 10 6 30 11
44 12 13 1 23 5 21 8 -8 13 34 52 70 66 29 11 32 14 13 11 -19 -3 -28 0 -28 9
0 8 -7 14 -16 14 -8 0 -12 5 -9 10 4 6 11 8 16 5 5 -4 9 -1 9 5 0 7 8 9 20 5
15 -5 18 -3 14 9 -5 13 1 16 32 16 20 0 35 3 31 6 -11 12 -91 5 -102 -8 -5 -7
-25 -14 -44 -15 -42 -2 -59 -17 -41 -38 10 -12 10 -15 -3 -15 -8 0 -20 -7 -27
-15 -14 -17 -35 -21 -25 -5 3 6 -4 10 -17 10 -18 0 -20 -2 -9 -9 12 -8 9 -11
-11 -16 -15 -4 -35 -5 -45 -2 -15 3 -13 6 10 15 15 6 27 14 27 18 0 3 -12 3
-27 0 -25 -6 -26 -5 -10 7 23 19 22 25 -6 23 -18 -1 -23 -6 -21 -23 2 -19 -1
-21 -23 -12 -13 5 -36 9 -49 9 -38 0 -24 24 17 30 27 4 35 10 38 30 3 26 17
40 39 40 18 0 14 -18 -5 -23 -10 -2 5 -4 32 -3 32 1 57 7 69 19 13 11 23 14
30 7 5 -5 21 -10 34 -10 18 0 23 4 18 16 -3 9 -6 20 -6 25 0 6 -5 7 -10 4 -6
-4 -8 -10 -5 -14 2 -5 -10 -9 -28 -9 -17 0 -48 -4 -67 -9 -27 -7 -37 -6 -46 6
-10 13 -14 13 -29 1 -10 -8 -20 -14 -22 -12 -11 8 -23 -1 -23 -18 0 -28 -20
-25 -21 3 -1 21 -1 21 -8 -3 -5 -18 -9 -21 -15 -11 -6 9 2 22 22 41 17 15 32
24 34 19 5 -14 46 1 44 17 -3 21 -9 22 -41 6z m-65 -42 c0 -5 -10 -10 -22 -10
-19 0 -20 2 -8 10 19 13 30 13 30 0z m-205 -10 c3 -5 -1 -10 -9 -10 -9 0 -16
5 -16 10 0 6 4 10 9 10 6 0 13 -4 16 -10z m175 -40 c-8 -5 -22 -9 -30 -9 -10
0 -8 3 5 9 27 12 43 12 25 0z m-390 -24 c0 -8 6 -16 13 -19 9 -3 9 -7 -1 -19
-10 -13 -10 -17 0 -22 7 -3 1 -3 -14 0 -15 3 -33 2 -40 -2 -19 -12 -117 -16
-136 -5 -15 9 -15 10 3 10 11 1 45 3 75 6 30 3 65 6 78 6 21 1 33 19 12 19 -5
0 -10 9 -10 20 0 11 5 20 10 20 6 0 10 -6 10 -14z m345 4 c3 -5 15 -10 25 -10
19 0 36 -17 26 -27 -3 -3 -13 -2 -23 2 -10 5 -21 7 -25 7 -5 -1 -8 3 -8 8 0 6
-7 10 -16 10 -8 0 -12 5 -9 10 3 6 10 10 15 10 5 0 12 -4 15 -10z m355 -15 c7
-8 9 -15 6 -15 -4 0 -14 7 -22 15 -9 8 -11 15 -6 15 5 0 15 -7 22 -15z m48
-33 c2 -7 -6 -12 -17 -12 -13 0 -21 -6 -21 -16 0 -11 -5 -14 -16 -10 -9 3 -22
6 -30 6 -8 0 -14 5 -14 11 0 5 4 8 9 4 5 -3 12 -1 16 5 3 5 15 10 26 10 10 0
19 5 19 11 0 14 23 6 28 -9z m-688 -12 c-20 -13 -33 -13 -25 0 3 6 14 10 23
10 15 0 15 -2 2 -10z m380 6 c0 -9 -30 -14 -35 -6 -4 6 3 10 14 10 12 0 21 -2
21 -4z m-717 -22 c38 -9 34 -25 -5 -18 -49 8 -58 12 -58 24 0 6 8 9 18 6 9 -3
29 -8 45 -12z m77 0 c0 -2 -7 -4 -15 -4 -8 0 -15 4 -15 10 0 5 7 7 15 4 8 -4
15 -8 15 -10z m-215 -4 c-3 -5 -10 -10 -16 -10 -5 0 -9 5 -9 10 0 6 7 10 16
10 8 0 12 -4 9 -10z m45 0 c0 -5 -2 -10 -4 -10 -3 0 -8 5 -11 10 -3 6 -1 10 4
10 6 0 11 -4 11 -10z m776 -3 c6 -5 -8 -47 -15 -47 -4 0 -17 9 -29 20 -12 11
-28 20 -37 20 -8 0 -15 5 -15 10 0 10 87 6 96 -3z m79 3 c-5 -8 26 -13 85 -12
3 0 16 3 30 7 19 5 21 4 10 -4 -9 -7 -10 -11 -3 -11 7 0 16 6 20 14 7 13 11
12 31 -2 26 -20 36 -18 -100 -25 -49 -2 -88 0 -88 4 0 4 -3 14 -6 23 -4 11 -1
16 11 16 9 0 13 -4 10 -10z m-428 -37 c-21 -22 -32 -11 -17 17 9 16 15 19 23
11 8 -8 7 -16 -6 -28z m-37 15 c0 -6 -7 -19 -16 -29 -8 -9 -17 -25 -18 -35 -2
-14 -13 -20 -39 -21 -45 -4 -57 12 -15 21 40 8 58 23 58 49 0 16 -3 18 -12 9
-8 -8 -15 -9 -25 0 -11 9 -12 7 -6 -7 5 -15 3 -17 -11 -12 -20 8 -65 -31 -58
-51 2 -7 -2 -10 -12 -6 -9 3 -16 1 -16 -5 0 -6 -9 -11 -20 -11 -11 0 -20 -5
-20 -11 0 -6 -7 -9 -15 -5 -8 3 -14 0 -12 -7 1 -8 -10 -11 -31 -10 -40 1 -52
11 -32 23 13 8 12 10 -3 10 -10 0 -15 5 -12 10 3 6 -1 10 -10 10 -8 0 -19 8
-22 18 -4 9 -11 21 -17 25 -7 6 -4 7 6 3 10 -3 20 0 24 6 5 8 -6 9 -36 5 -29
-4 -39 -2 -29 4 7 5 43 9 79 10 36 0 73 3 83 7 32 13 237 13 237 0z m421 -1
c-1 -12 -15 -9 -19 4 -3 6 1 10 8 8 6 -3 11 -8 11 -12z m-106 -17 c4 -6 11 -8
16 -5 5 4 9 1 9 -5 0 -7 -7 -9 -16 -6 -9 3 -20 6 -25 6 -5 0 -9 5 -9 10 0 13
17 13 25 0z m-119 -29 c-15 -16 -56 -19 -56 -4 0 3 8 3 18 1 10 -3 23 1 30 9
7 7 16 13 19 13 3 0 -2 -9 -11 -19z m70 12 c-10 -10 -46 -11 -40 -1 3 4 15 8
26 8 12 0 18 -3 14 -7z m-133 -37 c6 -15 -1 -26 -16 -26 -6 0 -7 3 -4 7 4 3
-1 12 -11 19 -16 12 -15 13 4 14 12 0 24 -6 27 -14z m84 -8 c-3 -8 -6 -5 -6 6
-1 11 2 17 5 13 3 -3 4 -12 1 -19z m-553 -19 c-3 -5 -10 -7 -15 -3 -5 3 -7 10
-3 15 3 5 10 7 15 3 5 -3 7 -10 3 -15z m352 -18 c-10 -11 -12 -21 -6 -27 6 -6
-8 -8 -35 -6 -31 3 -45 9 -45 18 0 12 8 13 37 8 30 -6 35 -4 30 9 -7 19 1 27
19 20 13 -5 13 -8 0 -22z m159 19 c-3 -5 -14 -10 -23 -10 -15 0 -15 2 -2 10
20 13 33 13 25 0z m-565 -36 c0 -12 -6 -15 -22 -10 -13 3 -27 6 -31 6 -20 0 4
16 27 18 18 1 26 -3 26 -14z m25 6 c-3 -5 1 -10 9 -10 9 0 16 5 16 11 0 6 6 9
12 7 15 -5 21 -58 7 -58 -5 0 -9 4 -9 10 0 5 -11 12 -25 16 -24 6 -36 34 -14
34 5 0 7 -4 4 -10z m475 -9 c0 -14 -7 -18 -30 -17 -33 1 -42 16 -11 16 11 0
23 5 26 10 9 15 15 12 15 -9z m40 -6 c0 -8 -7 -15 -15 -15 -8 0 -15 7 -15 15
0 8 7 15 15 15 8 0 15 -7 15 -15z m-270 -3 c0 -16 -22 -30 -41 -25 -18 5 -19
6 -2 19 20 15 43 18 43 6z m603 -7 c-3 -20 -31 -29 -48 -15 -13 10 -13 15 -3
22 17 11 54 6 51 -7z m-863 -15 c0 -5 -4 -10 -9 -10 -6 0 -13 5 -16 10 -3 6 1
10 9 10 9 0 16 -4 16 -10z m120 0 c0 -5 -8 -10 -17 -10 -15 0 -16 2 -3 10 19
12 20 12 20 0z m808 -10 c3 -9 -2 -11 -19 -7 -12 3 -29 1 -36 -5 -9 -7 -13 -7
-13 1 0 12 38 31 54 27 6 -1 12 -8 14 -16z m-748 -20 c0 -5 -4 -10 -10 -10 -5
0 -10 5 -10 10 0 6 5 10 10 10 6 0 10 -4 10 -10z m82 3 c-12 -2 -20 -8 -17
-13 3 -4 -3 -14 -12 -21 -9 -8 -14 -9 -11 -4 2 6 8 18 11 28 4 10 16 16 29 16
l23 -2 -23 -4z m61 -10 c-14 -5 -18 -33 -5 -33 5 0 19 -9 32 -20 30 -26 20
-25 -38 2 -30 13 -41 23 -32 26 8 3 19 11 23 18 4 8 13 14 20 13 9 0 9 -2 0
-6z m107 -11 c0 -14 -11 -21 -26 -15 -21 8 -17 23 6 23 11 0 20 -4 20 -8z
m-484 -22 c0 -11 -6 -20 -13 -20 -7 0 -13 9 -13 20 0 11 6 20 13 20 7 0 13 -9
13 -20z m81 14 c-3 -3 -12 -4 -19 -1 -8 3 -5 6 6 6 11 1 17 -2 13 -5z m53 -4
c0 -5 -7 -7 -15 -4 -8 4 -15 8 -15 10 0 2 7 4 15 4 8 0 15 -4 15 -10z m290 0
c4 0 10 -7 14 -15 6 -16 -9 -11 -44 16 -13 9 -12 10 3 5 10 -3 22 -6 27 -6z
m-165 -10 c3 -5 1 -10 -4 -10 -6 0 -11 5 -11 10 0 6 2 10 4 10 3 0 8 -4 11
-10z m-25 -10 c0 -5 -4 -10 -9 -10 -6 0 -13 5 -16 10 -3 6 1 10 9 10 9 0 16
-4 16 -10z m-110 -10 c0 -5 10 -10 23 -10 21 -1 22 -1 3 -15 -19 -14 -18 -15
10 -15 22 0 26 -3 14 -10 -17 -11 -4 -12 24 -1 18 7 18 8 1 25 -10 9 -14 20
-10 24 3 4 12 -1 19 -11 7 -9 18 -17 25 -17 6 0 11 -4 11 -10 0 -5 17 -10 37
-10 20 0 33 -3 30 -7 -8 -7 11 -33 25 -33 5 0 6 5 3 10 -4 6 8 10 29 10 47 0
45 -7 -4 -20 -35 -10 -47 -8 -85 11 -42 21 -45 21 -71 4 -25 -16 -27 -16 -55
4 -16 12 -29 17 -29 11 0 -5 5 -10 10 -10 6 0 10 -4 10 -10 0 -5 -14 -10 -31
-10 -16 0 -28 4 -25 9 3 5 -2 12 -12 16 -16 6 -16 7 1 17 13 7 17 17 13 34 -5
19 -3 24 14 24 11 0 20 -4 20 -10z m160 -9 c0 -15 -17 -22 -36 -14 -16 6 -16
7 2 14 27 11 34 10 34 0z m-257 -23 c12 10 16 9 21 -3 3 -8 1 -15 -5 -15 -6 0
-7 -4 -4 -10 4 -6 -7 -10 -27 -10 -25 0 -29 3 -18 10 13 8 12 10 -2 10 -10 0
-18 7 -18 15 0 12 3 13 19 3 15 -9 23 -9 34 0z m907 -14 c0 -8 -4 -12 -10 -9
-5 3 -10 1 -10 -4 0 -16 -23 -13 -46 4 -18 15 -18 15 7 9 15 -3 30 -1 33 5 10
16 26 13 26 -5z m-563 0 c-3 -3 -12 -4 -19 -1 -8 3 -5 6 6 6 11 1 17 -2 13 -5z
m573 -28 c0 -2 -7 -7 -16 -10 -8 -3 -12 -2 -9 4 6 10 25 14 25 6z m-600 -46
c0 -5 -4 -10 -10 -10 -5 0 -10 5 -10 10 0 6 5 10 10 10 6 0 10 -4 10 -10z
m1006 -125 c-20 -15 -20 -15 0 -16 13 -1 14 -3 4 -5 -21 -6 -62 -72 -54 -87 5
-9 3 -9 -7 1 -20 18 -29 15 -29 -13 0 -23 3 -25 36 -22 47 6 29 -12 -20 -18
-43 -6 -81 19 -55 36 11 7 9 10 -8 15 -13 4 -20 10 -17 15 3 5 -5 9 -18 10
-13 0 -17 3 -10 6 6 2 12 12 11 21 0 11 -2 12 -6 5 -3 -8 -22 -13 -46 -12 -30
0 -37 3 -23 8 19 7 19 8 -2 13 -12 4 -22 11 -22 17 0 14 37 15 45 1 3 -5 16
-10 28 -9 20 1 20 2 -3 9 -24 8 -25 8 -2 9 13 1 28 -3 35 -9 59 -48 75 -59 81
-53 14 15 4 31 -26 39 -17 5 -33 14 -35 20 -5 14 36 26 51 16 6 -4 -2 -10 -19
-13 -29 -6 -29 -7 7 -8 29 -1 36 2 32 13 -6 15 15 22 66 24 24 1 24 1 6 -13z
m39 -15 c3 -5 1 -10 -4 -10 -6 0 -11 5 -11 10 0 6 2 10 4 10 3 0 8 -4 11 -10z
m59 -8 c3 -5 -1 -9 -9 -9 -8 0 -12 4 -9 9 3 4 7 8 9 8 2 0 6 -4 9 -8z m-492
-14 c-14 -7 -26 -8 -32 -2 -6 6 2 10 23 11 30 2 31 1 9 -9z m-112 -18 c0 -5
23 -11 50 -15 28 -4 47 -11 44 -16 -3 -5 2 -9 10 -9 9 0 16 -4 16 -10 0 -5 -7
-6 -17 -3 -11 4 -14 3 -9 -6 5 -7 16 -9 28 -5 16 5 20 3 16 -8 -3 -8 0 -22 8
-33 8 -10 14 -26 13 -34 0 -10 -4 -7 -10 7 -5 13 -14 20 -19 17 -6 -4 -30 13
-53 36 -39 41 -77 59 -77 37 0 -5 -5 -6 -10 -3 -6 4 -8 11 -5 16 3 5 -1 6 -10
3 -9 -4 -14 -12 -11 -19 3 -8 -1 -16 -8 -18 -16 -6 -16 24 -1 35 5 4 6 10 2
14 -4 4 -14 -1 -22 -12 -8 -10 -15 -15 -15 -10 0 5 -7 3 -15 -4 -21 -17 -30
-6 -10 13 8 9 15 20 15 25 0 4 20 9 45 9 25 1 45 -3 45 -7z m230 -10 c-8 -5
-17 -7 -19 -4 -3 3 1 9 9 14 8 5 17 7 19 4 3 -3 -1 -9 -9 -14z m-343 4 c-3 -3
-12 -4 -19 -1 -8 3 -5 6 6 6 11 1 17 -2 13 -5z m-170 -28 c-4 -10 -17 -15 -32
-14 -31 3 -31 4 3 22 30 16 37 14 29 -8z m128 14 c-3 -5 -14 -10 -23 -9 -14 0
-13 2 3 9 27 11 27 11 20 0z m-258 -12 c-2 -7 -9 -12 -15 -11 -5 1 -13 -5 -16
-13 -4 -12 -2 -15 9 -10 8 3 15 1 15 -4 0 -5 10 -12 21 -15 16 -5 18 -9 9 -15
-7 -5 -20 -6 -28 -2 -9 3 -13 1 -9 -5 3 -5 1 -10 -6 -10 -7 0 -23 -3 -37 -8
-25 -7 -25 -7 -5 13 11 10 25 17 30 14 6 -3 4 1 -3 9 -11 12 -14 12 -22 -1 -5
-8 -12 -12 -15 -9 -8 8 5 39 17 39 5 0 6 5 2 11 -8 13 13 29 39 29 11 0 17 -5
14 -12z m573 -1 c0 -8 -7 -14 -15 -14 -8 0 -15 6 -15 14 0 7 7 13 15 13 8 0
15 -6 15 -13z m-524 -12 c-3 -9 3 -19 14 -25 11 -6 17 -16 14 -25 -5 -12 -10
-10 -26 10 -18 23 -19 55 -2 55 3 0 4 -7 0 -15z m608 -31 c8 -3 17 -12 20 -20
3 -9 1 -12 -4 -9 -6 3 -10 3 -10 0 0 -3 15 -12 33 -20 17 -8 25 -14 16 -15
-12 0 -15 -7 -12 -27 4 -26 3 -26 -8 -8 -18 29 -40 49 -72 65 -27 13 -27 14
-8 22 12 4 21 13 21 20 0 10 -2 10 -8 1 -7 -10 -12 -10 -27 0 -14 11 -15 16
-5 22 9 5 11 4 6 -3 -4 -7 -1 -12 8 -12 9 0 16 8 17 18 0 13 2 12 9 -6 5 -12
16 -25 24 -28z m-204 -13 c14 -26 13 -27 -12 -28 -13 0 -17 1 -10 4 17 7 15
23 -4 23 -8 0 -12 5 -9 10 10 16 23 12 35 -9z m-310 -1 c0 -5 -8 -10 -17 -10
-15 0 -16 2 -3 10 19 12 20 12 20 0z m366 -32 c2 -15 -1 -16 -17 -8 -23 13
-25 33 -2 28 9 -2 17 -11 19 -20z m136 -52 c13 -40 13 -46 0 -51 -21 -8 -44
14 -36 37 5 17 2 19 -15 13 -21 -6 -30 8 -11 20 6 3 10 15 10 26 0 35 36 4 52
-45z m242 49 c3 -8 1 -15 -4 -15 -6 0 -10 7 -10 15 0 8 2 15 4 15 2 0 6 -7 10
-15z m-34 -2 c-8 -3 -18 -11 -22 -17 -5 -7 -8 -4 -8 7 0 11 7 17 23 16 15 0
17 -2 7 -6z m120 -2 c0 -5 -6 -11 -13 -14 -8 -3 -14 1 -14 9 0 8 6 14 14 14 7
0 13 -4 13 -9z m-1046 -58 c-9 -6 -22 -9 -30 -6 -16 6 -19 23 -4 23 6 0 10 9
10 21 0 21 0 21 20 -2 17 -21 17 -25 4 -36z m146 53 c0 -2 -7 -6 -15 -10 -8
-3 -15 -1 -15 4 0 6 7 10 15 10 8 0 15 -2 15 -4z m700 -23 c0 -12 -5 -23 -11
-23 -5 0 -7 -5 -4 -10 4 -6 12 -7 18 -3 8 4 8 1 -1 -9 -7 -9 -11 -22 -10 -29
2 -8 -10 -13 -34 -15 -42 -3 -52 11 -13 18 14 3 25 1 25 -3 0 -5 4 -9 9 -9 5
0 7 9 4 21 -3 12 -11 18 -19 15 -16 -6 -19 26 -5 53 14 26 41 22 41 -6z m297
21 c-3 -3 -12 -4 -19 -1 -8 3 -5 6 6 6 11 1 17 -2 13 -5z m-907 -14 c0 -5 -12
-10 -27 -9 l-28 1 25 8 c14 4 26 8 28 9 1 1 2 -3 2 -9z m400 -20 c0 -5 -7 -7
-15 -4 -8 4 -15 8 -15 10 0 2 7 4 15 4 8 0 15 -4 15 -10z m290 1 c0 -5 -9 -11
-20 -14 -20 -5 -26 3 -13 16 9 10 33 8 33 -2z m46 -31 c0 -12 -4 -16 -9 -11
-5 5 -6 14 -3 20 10 15 12 14 12 -9z m-926 0 c0 -5 -7 -7 -15 -4 -8 4 -15 8
-15 10 0 2 7 4 15 4 8 0 15 -4 15 -10z m-40 -10 c0 -5 -4 -10 -10 -10 -5 0
-10 5 -10 10 0 6 5 10 10 10 6 0 10 -4 10 -10z m470 -30 c15 -9 17 -8 -36 -25
-28 -9 -38 7 -13 21 29 16 30 16 49 4z m-460 -20 c9 -6 10 -10 3 -10 -6 0 -18
-2 -26 -5 -8 -4 -14 0 -14 10 0 17 15 19 37 5z m485 -29 c-3 -6 3 -14 12 -20
10 -6 12 -11 6 -11 -7 0 -13 -4 -13 -10 0 -5 7 -7 15 -4 8 4 26 3 40 0 18 -5
24 -12 23 -29 -1 -13 -8 -24 -15 -24 -16 0 -17 9 0 26 10 11 9 13 -5 8 -10 -3
-20 -3 -22 2 -3 4 -18 7 -34 6 -24 -1 -28 2 -24 17 2 10 1 18 -4 17 -23 -4
-26 2 -8 16 22 16 38 20 29 6z m-141 -44 c-3 -8 -12 -18 -20 -21 -11 -4 -10 0
3 18 20 26 27 28 17 3z m56 7 c0 -2 -9 -4 -21 -4 -11 0 -18 4 -14 10 5 8 35 3
35 -6z m575 -12 c0 -18 -20 -15 -23 4 -3 10 1 15 10 12 7 -3 13 -10 13 -16z
m-507 -56 c-10 -7 -18 -19 -18 -26 0 -7 -3 -11 -6 -7 -11 11 7 47 24 47 16 -1
16 -2 0 -14z m145 -3 c3 -5 -6 -9 -20 -10 -19 -1 -22 1 -12 8 17 11 26 11 32
2z m-453 -53 c0 -5 -7 -10 -16 -10 -8 0 -12 5 -9 10 3 6 10 10 16 10 5 0 9 -4
9 -10z"/>
<path d="M254 1538 c-4 -6 -26 -8 -53 -4 -32 4 -41 3 -29 -4 9 -6 14 -18 11
-28 -6 -25 23 -50 39 -34 7 7 23 13 37 13 17 1 20 3 9 6 -10 2 -18 11 -18 19
0 8 3 13 8 11 13 -8 83 8 80 18 -4 13 -76 16 -84 3z"/>
<path d="M1346 1041 c-4 -7 -5 -15 -2 -18 9 -9 19 4 14 18 -4 11 -6 11 -12 0z"/>
<path d="M1043 1764 c-15 -15 -23 -25 -18 -22 6 2 25 10 43 17 33 13 43 31 18
31 -8 0 -28 -12 -43 -26z"/>
<path d="M101 1771 c-10 -7 -10 -10 -1 -16 6 -4 16 -3 22 3 13 13 -4 23 -21
13z"/>
<path d="M436 1764 c-9 -22 -8 -24 9 -24 8 0 15 6 15 14 0 22 -17 28 -24 10z"/>
<path d="M1640 1769 c0 -5 5 -7 10 -4 6 3 10 8 10 11 0 2 -4 4 -10 4 -5 0 -10
-5 -10 -11z"/>
<path d="M1008 1763 c7 -3 16 -2 19 1 4 3 -2 6 -13 5 -11 0 -14 -3 -6 -6z"/>
<path d="M2248 1763 c13 -3 22 -12 22 -22 0 -17 29 -51 43 -51 4 0 7 11 7 24
0 26 -46 57 -79 55 -9 -1 -6 -4 7 -6z"/>
<path d="M1557 1749 c7 -7 15 -10 18 -7 3 3 -2 9 -12 12 -14 6 -15 5 -6 -5z"/>
<path d="M2396 1751 c-4 -5 -2 -12 3 -15 5 -4 12 -2 15 3 4 5 2 12 -3 15 -5 4
-12 2 -15 -3z"/>
<path d="M310 1740 c0 -5 5 -10 10 -10 6 0 10 5 10 10 0 6 -4 10 -10 10 -5 0
-10 -4 -10 -10z"/>
<path d="M360 1740 c0 -5 5 -10 10 -10 6 0 10 5 10 10 0 6 -4 10 -10 10 -5 0
-10 -4 -10 -10z"/>
<path d="M400 1740 c0 -5 5 -10 10 -10 6 0 10 5 10 10 0 6 -4 10 -10 10 -5 0
-10 -4 -10 -10z"/>
<path d="M1308 1743 c6 -2 18 -2 25 0 6 3 1 5 -13 5 -14 0 -19 -2 -12 -5z"/>
<path d="M1395 1740 c-3 -5 3 -10 14 -10 12 0 21 5 21 10 0 6 -6 10 -14 10 -8
0 -18 -4 -21 -10z"/>
<path d="M2530 1740 c0 -5 5 -10 11 -10 5 0 7 5 4 10 -3 6 -8 10 -11 10 -2 0
-4 -4 -4 -10z"/>
<path d="M3400 1730 c0 -5 5 -10 10 -10 6 0 10 5 10 10 0 6 -4 10 -10 10 -5 0
-10 -4 -10 -10z"/>
<path d="M3965 1730 c28 -12 37 -12 30 0 -3 6 -16 10 -28 9 -21 0 -21 -1 -2
-9z"/>
<path d="M328 1709 c-15 -16 -15 -18 9 -24 27 -6 44 2 27 13 -6 4 -13 12 -15
17 -2 6 -11 4 -21 -6z"/>
<path d="M1450 1718 c0 -4 7 -8 15 -8 8 0 17 0 20 0 3 0 4 3 3 7 -4 10 -38 11
-38 1z"/>
<path d="M2370 1720 c0 -5 5 -10 10 -10 6 0 10 5 10 10 0 6 -4 10 -10 10 -5 0
-10 -4 -10 -10z"/>
<path d="M2700 1720 c0 -5 5 -10 10 -10 6 0 10 5 10 10 0 6 -4 10 -10 10 -5 0
-10 -4 -10 -10z"/>
<path d="M232 1709 c5 -16 58 -25 58 -10 0 6 -6 11 -14 11 -8 0 -22 3 -32 7
-12 4 -15 2 -12 -8z"/>
<path d="M385 1710 c3 -5 8 -10 11 -10 2 0 4 5 4 10 0 6 -5 10 -11 10 -5 0 -7
-4 -4 -10z"/>
<path d="M1084 1695 c-4 -8 -9 -13 -13 -11 -4 3 -13 1 -21 -5 -11 -6 -5 -9 21
-9 22 0 42 7 50 17 10 11 10 14 2 9 -7 -4 -13 -2 -13 3 0 16 -20 13 -26 -4z"/>
<path d="M1358 1703 c7 -3 16 -2 19 1 4 3 -2 6 -13 5 -11 0 -14 -3 -6 -6z"/>
<path d="M2210 1706 c0 -2 7 -9 15 -16 9 -7 15 -8 15 -2 0 5 -7 12 -15 16 -8
3 -15 4 -15 2z"/>
<path d="M2250 1702 c0 -5 7 -15 15 -22 8 -7 15 -8 15 -2 0 5 -7 15 -15 22 -8
7 -15 8 -15 2z"/>
<path d="M3640 1706 c0 -2 7 -6 15 -10 8 -3 15 -1 15 4 0 6 -7 10 -15 10 -8 0
-15 -2 -15 -4z"/>
<path d="M3945 1700 c3 -5 13 -10 21 -10 8 0 14 5 14 10 0 6 -9 10 -21 10 -11
0 -17 -4 -14 -10z"/>
<path d="M520 1690 c0 -5 5 -10 10 -10 6 0 10 5 10 10 0 6 -4 10 -10 10 -5 0
-10 -4 -10 -10z"/>
<path d="M385 1680 c-3 -5 -1 -10 4 -10 6 0 11 5 11 10 0 6 -2 10 -4 10 -3 0
-8 -4 -11 -10z"/>
<path d="M3860 1680 c0 -5 7 -7 15 -4 8 4 15 8 15 10 0 2 -7 4 -15 4 -8 0 -15
-4 -15 -10z"/>
<path d="M3910 1680 c0 -5 7 -7 15 -4 8 4 15 8 15 10 0 2 -7 4 -15 4 -8 0 -15
-4 -15 -10z"/>
<path d="M93 1673 c9 -2 25 -2 35 0 9 3 1 5 -18 5 -19 0 -27 -2 -17 -5z"/>
<path d="M1256 1651 c-14 -5 -16 -10 -8 -15 7 -4 19 0 28 8 17 17 11 19 -20 7z"/>
<path d="M1305 1639 c-4 -6 -4 -13 0 -17 3 -3 10 0 15 7 4 8 15 11 24 8 9 -4
16 -2 16 3 0 13 -47 13 -55 -1z"/>
<path d="M2775 1640 c-16 -7 -17 -9 -3 -9 9 -1 20 4 23 9 7 11 7 11 -20 0z"/>
<path d="M3835 1640 c3 -5 11 -10 16 -10 6 0 7 5 4 10 -3 6 -11 10 -16 10 -6
0 -7 -4 -4 -10z"/>
<path d="M1400 1627 c0 -10 -7 -14 -22 -10 -21 4 -22 3 -6 -10 22 -18 51 -15
72 6 15 14 15 17 3 17 -9 0 -22 3 -31 6 -10 4 -16 1 -16 -9z"/>
<path d="M2798 1625 c-4 -4 -3 -18 3 -32 5 -15 5 -22 0 -18 -5 3 -12 1 -15 -4
-3 -5 4 -11 15 -14 12 -3 18 -10 14 -16 -3 -6 -1 -11 5 -11 6 0 8 10 4 28 -4
18 -3 24 3 17 6 -5 13 -25 16 -42 l7 -33 -60 0 c-55 0 -60 2 -61 23 0 21 -1
21 -9 2 -16 -37 -12 -58 10 -52 11 3 20 1 20 -4 0 -5 9 -9 20 -9 11 0 20 5 20
12 0 6 3 9 6 5 3 -3 19 -1 35 5 32 11 37 33 18 86 -7 19 -16 29 -24 26 -8 -4
-15 3 -17 16 -2 12 -6 19 -10 15z"/>
<path d="M2530 1610 c0 -5 5 -10 10 -10 6 0 10 5 10 10 0 6 -4 10 -10 10 -5 0
-10 -4 -10 -10z"/>
<path d="M1335 1600 c-3 -5 -1 -10 4 -10 6 0 11 5 11 10 0 6 -2 10 -4 10 -3 0
-8 -4 -11 -10z"/>
<path d="M2270 1594 c0 -9 5 -14 12 -12 18 6 21 28 4 28 -9 0 -16 -7 -16 -16z"/>
<path d="M2760 1600 c-9 -6 -10 -10 -3 -10 6 0 15 5 18 10 8 12 4 12 -15 0z"/>
<path d="M2251 1583 c-1 -12 4 -25 10 -28 14 -9 27 4 13 13 -6 4 -14 14 -17
22 -4 10 -6 8 -6 -7z"/>
<path d="M3060 1590 c0 -5 5 -10 10 -10 6 0 10 5 10 10 0 6 -4 10 -10 10 -5 0
-10 -4 -10 -10z"/>
<path d="M1257 1555 c12 -8 28 -12 37 -9 29 11 17 24 -21 24 -36 0 -37 -1 -16
-15z"/>
<path d="M1330 1560 c0 -5 5 -10 10 -10 6 0 10 5 10 10 0 6 -4 10 -10 10 -5 0
-10 -4 -10 -10z"/>
<path d="M3295 1560 c-4 -6 -3 -16 3 -22 6 -6 12 -6 17 2 4 6 3 16 -3 22 -6 6
-12 6 -17 -2z"/>
<path d="M1352 1544 c-7 -8 -12 -20 -10 -26 2 -6 12 1 21 16 19 28 11 35 -11
10z"/>
<path d="M3930 1549 c0 -5 5 -7 10 -4 6 3 10 8 10 11 0 2 -4 4 -10 4 -5 0 -10
-5 -10 -11z"/>
<path d="M3685 1540 c-3 -5 -2 -10 4 -10 5 0 13 5 16 10 3 6 2 10 -4 10 -5 0
-13 -4 -16 -10z"/>
<path d="M2740 1530 c0 -6 7 -13 15 -17 24 -9 27 1 5 15 -13 8 -20 8 -20 2z"/>
<path d="M3975 1532 c-22 -5 -46 -33 -39 -44 3 -5 13 -8 22 -7 11 0 12 3 5 6
-21 8 -14 25 7 18 14 -4 22 -1 26 10 8 20 4 23 -21 17z"/>
<path d="M3875 1511 c-2 -5 2 -17 10 -27 13 -16 16 -17 25 -4 5 8 8 19 7 24
-4 12 -35 17 -42 7z"/>
<path d="M1150 1499 c0 -5 5 -7 10 -4 6 3 10 8 10 11 0 2 -4 4 -10 4 -5 0 -10
-5 -10 -11z"/>
<path d="M864 1479 c-19 -21 -19 -21 0 -18 11 2 20 12 22 22 3 22 1 22 -22 -4z"/>
<path d="M1220 1490 c0 -12 28 -21 35 -11 2 5 -4 11 -15 14 -11 3 -20 2 -20
-3z"/>
<path d="M2666 1493 c-11 -11 -6 -23 9 -23 8 0 15 4 15 9 0 13 -16 22 -24 14z"/>
<path d="M3800 1484 c0 -10 -6 -14 -15 -11 -8 4 -17 2 -20 -3 -4 -6 11 -10 34
-10 45 0 52 9 21 28 -17 10 -20 10 -20 -4z"/>
<path d="M952 1481 c-11 -7 -11 -9 0 -14 9 -3 15 1 15 9 0 8 -1 14 -1 14 -1 0
-7 -4 -14 -9z"/>
<path d="M1000 1480 c-9 -6 -10 -10 -3 -10 6 0 15 5 18 10 8 12 4 12 -15 0z"/>
<path d="M2907 1474 c-9 -10 2 -24 19 -24 8 0 14 7 14 15 0 15 -21 21 -33 9z"/>
<path d="M2395 1450 c-3 -5 3 -10 14 -10 12 0 21 5 21 10 0 6 -6 10 -14 10 -8
0 -18 -4 -21 -10z"/>
<path d="M2983 1445 c-7 -8 -13 -19 -13 -25 0 -22 25 -8 26 15 1 14 1 25 0 25
0 -1 -7 -7 -13 -15z"/>
<path d="M1270 1440 c0 -5 7 -7 15 -4 8 4 15 8 15 10 0 2 -7 4 -15 4 -8 0 -15
-4 -15 -10z"/>
<path d="M3949 1446 c-2 -2 -44 -7 -94 -10 -132 -8 -157 -14 -153 -40 3 -18 9
-21 41 -18 28 3 37 0 37 -12 0 -10 -9 -16 -24 -16 -14 0 -28 -5 -32 -12 -5 -8
13 -9 72 -4 186 16 204 19 204 32 0 7 -6 11 -12 9 -12 -4 -79 -12 -148 -18
-27 -3 -50 9 -50 26 0 6 17 7 44 4 34 -5 50 -2 68 12 25 20 58 24 58 7 0 -15
20 16 20 32 0 11 -21 17 -31 8z"/>
<path d="M829 1431 c10 -7 11 -13 1 -31 -11 -20 -10 -22 4 -17 9 4 16 1 16 -5
0 -9 3 -9 12 0 8 8 8 15 -2 27 -7 8 -9 15 -4 15 12 0 -19 20 -31 20 -5 0 -4
-4 4 -9z"/>
<path d="M2875 1421 c-3 -5 -1 -12 5 -16 5 -3 10 1 10 9 0 18 -6 21 -15 7z"/>
<path d="M3010 1420 c0 -5 5 -10 11 -10 5 0 7 5 4 10 -3 6 -8 10 -11 10 -2 0
-4 -4 -4 -10z"/>
<path d="M2945 1409 c-4 -6 -5 -12 -2 -15 2 -3 7 2 10 11 7 17 1 20 -8 4z"/>
<path d="M2900 1373 c-13 -15 -12 -16 4 -10 10 4 20 7 22 7 2 0 4 5 4 10 0 15
-13 12 -30 -7z"/>
<path d="M2836 1365 c4 -8 8 -15 10 -15 2 0 4 7 4 15 0 8 -4 15 -10 15 -5 0
-7 -7 -4 -15z"/>
<path d="M2940 1365 c0 -8 -8 -15 -17 -16 -15 0 -15 -2 2 -9 29 -13 30 -12 31
15 1 14 -2 25 -7 25 -5 0 -9 -7 -9 -15z"/>
<path d="M810 1359 c0 -5 5 -7 10 -4 6 3 10 8 10 11 0 2 -4 4 -10 4 -5 0 -10
-5 -10 -11z"/>
<path d="M3667 1344 c-5 -6 3 -32 26 -81 19 -43 24 -23 8 32 -16 53 -21 62
-34 49z"/>
<path d="M1277 1329 c7 -7 15 -10 18 -7 3 3 -2 9 -12 12 -14 6 -15 5 -6 -5z"/>
<path d="M1025 1310 c-8 -13 15 -24 27 -12 6 6 4 11 -6 15 -8 3 -18 2 -21 -3z"/>
<path d="M3600 1296 c0 -9 5 -16 10 -16 6 0 10 4 10 9 0 6 -4 13 -10 16 -5 3
-10 -1 -10 -9z"/>
<path d="M3823 1303 c-17 -6 -17 -33 0 -33 7 0 13 9 13 20 0 11 0 20 -1 19 0
0 -6 -3 -12 -6z"/>
<path d="M3870 1300 c-12 -8 -9 -10 13 -10 15 0 27 5 27 10 0 13 -20 13 -40 0z"/>
<path d="M3958 1303 c7 -3 16 -2 19 1 4 3 -2 6 -13 5 -11 0 -14 -3 -6 -6z"/>
<path d="M3745 1290 c4 -6 11 -8 16 -5 14 9 11 15 -7 15 -8 0 -12 -5 -9 -10z"/>
<path d="M800 1281 c0 -10 24 -21 48 -21 13 0 12 3 -4 15 -21 16 -44 19 -44 6z"/>
<path d="M550 1269 c0 -5 -10 -13 -22 -18 l-22 -8 23 -13 c19 -10 25 -10 33 1
7 11 8 9 6 -5 -4 -25 13 -30 37 -11 14 12 16 18 8 21 -21 9 -15 24 9 24 34 0
17 8 -30 13 -23 3 -42 1 -42 -4z"/>
<path d="M1160 1270 c-9 -6 -10 -10 -3 -10 6 0 15 5 18 10 8 12 4 12 -15 0z"/>
<path d="M3926 1261 c-6 -8 25 -21 52 -21 10 0 10 3 -2 15 -16 17 -42 20 -50
6z"/>
<path d="M1140 1240 c-7 -4 -20 -5 -30 -3 -10 3 -21 0 -24 -6 -5 -7 7 -11 36
-11 50 0 81 14 50 22 -11 3 -25 2 -32 -2z"/>
<path d="M788 1213 c6 -2 18 -2 25 0 6 3 1 5 -13 5 -14 0 -19 -2 -12 -5z"/>
<path d="M3966 1210 c-19 -6 -19 -7 2 -12 12 -4 24 -2 27 2 8 13 -8 18 -29 10z"/>
<path d="M6 1173 c3 -59 4 -59 18 -41 9 12 16 14 23 7 8 -8 13 -8 17 0 4 5 13
8 21 4 10 -3 15 2 15 16 0 12 5 21 11 21 5 0 7 5 4 10 -9 14 -75 13 -75 -2 0
-9 -3 -9 -12 0 -18 18 -24 15 -22 -15z m52 -10 c-10 -2 -26 -2 -35 0 -10 3 -2
5 17 5 19 0 27 -2 18 -5z"/>
<path d="M663 1187 c-5 -9 83 -4 92 5 2 2 -16 4 -41 4 -25 -1 -48 -5 -51 -9z"/>
<path d="M818 1193 c6 -2 18 -2 25 0 6 3 1 5 -13 5 -14 0 -19 -2 -12 -5z"/>
<path d="M260 1170 c0 -12 17 -12 45 0 17 7 15 9 -12 9 -18 1 -33 -3 -33 -9z"/>
<path d="M1032 1149 c-13 -5 -20 -13 -17 -19 7 -12 45 5 45 20 0 6 -1 10 -2 9
-2 0 -13 -4 -26 -10z"/>
<path d="M3970 1150 c0 -5 4 -10 9 -10 6 0 13 5 16 10 3 6 -1 10 -9 10 -9 0
-16 -4 -16 -10z"/>
<path d="M920 1129 c0 -5 9 -9 20 -9 11 0 20 4 20 8 0 4 -9 8 -20 9 -11 1 -20
-2 -20 -8z"/>
<path d="M660 1110 c0 -5 5 -10 10 -10 6 0 10 5 10 10 0 6 -4 10 -10 10 -5 0
-10 -4 -10 -10z"/>
<path d="M450 1100 c-9 -6 -10 -10 -3 -10 6 0 15 5 18 10 8 12 4 12 -15 0z"/>
<path d="M391 1077 c8 -14 13 -16 25 -6 20 17 17 25 -10 25 -21 0 -23 -3 -15
-19z"/>
<path d="M161 904 c-7 -8 -11 -18 -8 -21 3 -3 1 -17 -4 -32 -8 -21 -8 -24 2
-13 7 6 17 12 21 12 14 0 9 -18 -9 -36 -17 -17 -17 -17 4 -12 16 4 20 2 16 -8
-3 -8 -1 -14 5 -14 13 0 25 32 15 39 -5 3 -8 13 -8 21 1 8 -3 20 -8 27 -5 7
-4 20 3 32 13 26 -7 29 -29 5z"/>
<path d="M29 854 c-9 -12 -9 -20 1 -42 9 -20 14 -23 18 -12 2 8 8 22 12 30 12
23 -15 43 -31 24z"/>
<path d="M3970 860 c0 -5 5 -10 11 -10 5 0 7 5 4 10 -3 6 -8 10 -11 10 -2 0
-4 -4 -4 -10z"/>
<path d="M1 824 c0 -11 3 -14 6 -6 3 7 2 16 -1 19 -3 4 -6 -2 -5 -13z"/>
<path d="M3976 753 c5 -5 12 -12 16 -18 4 -6 8 -2 8 8 0 9 -7 17 -17 17 -9 0
-12 -3 -7 -7z"/>
<path d="M1710 640 c0 -5 5 -10 10 -10 6 0 10 5 10 10 0 6 -4 10 -10 10 -5 0
-10 -4 -10 -10z"/>
<path d="M1950 590 c0 -5 5 -10 10 -10 6 0 10 5 10 10 0 6 -4 10 -10 10 -5 0
-10 -4 -10 -10z"/>
<path d="M325 573 c-30 -14 -30 -14 -3 -10 17 3 29 -1 32 -10 3 -8 11 -11 17
-7 8 4 9 3 5 -4 -5 -8 0 -12 13 -12 13 0 21 -7 21 -16 0 -13 -3 -14 -13 -5 -8
6 -17 8 -20 4 -4 -3 -7 -1 -7 5 0 7 -4 12 -10 12 -5 0 -6 -8 -3 -17 6 -15 4
-16 -9 -6 -8 7 -18 10 -21 6 -4 -3 -7 0 -7 7 0 7 -11 1 -25 -14 -21 -23 -26
-25 -31 -11 -6 14 -8 14 -18 1 -6 -8 -18 -16 -26 -18 -8 -2 -20 -10 -27 -18
-11 -13 -12 -13 -13 -1 0 11 -4 9 -15 -5 -14 -19 -14 -19 -15 1 0 17 -2 17
-10 5 -5 -8 -10 -10 -10 -5 0 6 -7 2 -14 -8 -14 -19 -33 -7 -21 13 9 15 -14
12 -31 -4 -7 -8 -19 -16 -26 -19 -7 -2 -10 -7 -6 -11 3 -4 16 -1 27 6 18 11
23 11 30 -1 6 -8 14 -10 22 -5 8 5 21 7 29 6 29 -4 213 37 221 49 6 10 10 10
22 0 10 -8 29 -10 54 -5 63 11 70 19 35 39 -20 12 -29 25 -27 37 4 20 -21 25
-28 6 -3 -10 -7 -10 -20 1 -9 7 -14 18 -10 24 3 6 1 7 -6 3 -6 -4 -9 -13 -5
-19 3 -7 0 -5 -8 4 -11 14 -17 14 -43 2z"/>
<path d="M248 543 c-21 -5 -24 -23 -4 -23 8 0 16 7 20 15 3 8 4 14 3 14 -1 -1
-10 -3 -19 -6z"/>
<path d="M195 530 c-3 -5 -1 -10 4 -10 6 0 11 5 11 10 0 6 -2 10 -4 10 -3 0
-8 -4 -11 -10z"/>
<path d="M180 499 c0 -5 5 -7 10 -4 6 3 10 8 10 11 0 2 -4 4 -10 4 -5 0 -10
-5 -10 -11z"/>
<path d="M1545 490 c-3 -5 1 -10 10 -10 9 0 13 5 10 10 -3 6 -8 10 -10 10 -2
0 -7 -4 -10 -10z"/>
<path d="M27 473 c3 -7 -2 -13 -11 -13 -10 0 -16 -9 -16 -25 0 -14 4 -25 10
-25 5 0 7 7 4 15 -4 9 3 18 18 24 28 11 34 40 7 38 -9 -1 -15 -7 -12 -14z"/>
<path d="M1342 446 c7 -8 15 -12 17 -11 5 6 -10 25 -20 25 -5 0 -4 -6 3 -14z"/>
<path d="M438 443 c6 -2 18 -2 25 0 6 3 1 5 -13 5 -14 0 -19 -2 -12 -5z"/>
<path d="M1519 402 c5 -34 6 -35 9 -8 2 16 0 32 -5 37 -5 5 -7 -7 -4 -29z"/>
<path d="M1401 383 c-1 -30 1 -31 32 -26 38 6 49 13 20 13 -11 0 -28 10 -36
23 l-16 22 0 -32z"/>
<path d="M1220 388 c0 -5 -4 -6 -10 -3 -5 3 -10 -1 -10 -9 0 -8 5 -18 11 -21
6 -4 8 -13 5 -21 -3 -8 1 -14 9 -14 8 0 15 9 15 20 0 11 5 20 10 20 19 0 10
28 -10 33 -11 3 -20 1 -20 -5z m30 -12 c0 -2 -7 -7 -16 -10 -8 -3 -12 -2 -9 4
6 10 25 14 25 6z"/>
<path d="M1130 355 c0 -8 4 -15 10 -15 5 0 7 7 4 15 -4 8 -8 15 -10 15 -2 0
-4 -7 -4 -15z"/>
<path d="M1163 330 c-1 -14 4 -20 18 -20 12 0 19 7 19 20 0 13 -7 20 -18 20
-11 0 -18 -8 -19 -20z"/>
<path d="M584 234 c30 -26 40 -27 31 -1 -4 8 -18 17 -33 20 l-27 5 29 -24z"/>
<path d="M1461 253 c0 -5 4 -17 9 -28 8 -18 9 -18 9 -2 1 10 11 22 24 27 20 8
19 9 -10 9 -18 1 -33 -2 -32 -6z"/>
<path d="M518 223 c6 -2 18 -2 25 0 6 3 1 5 -13 5 -14 0 -19 -2 -12 -5z"/>
<path d="M1490 209 c0 -11 4 -18 10 -14 5 3 7 12 3 20 -7 21 -13 19 -13 -6z"/>
<path d="M540 190 c-12 -7 -10 -9 8 -7 12 0 22 5 22 9 0 11 -12 10 -30 -2z"/>
<path d="M467 178 c-7 -5 1 -8 21 -8 17 0 32 4 32 8 0 10 -37 10 -53 0z"/>
<path d="M1010 145 c0 -8 4 -15 8 -15 5 0 9 7 9 15 0 8 -4 15 -9 15 -4 0 -8
-7 -8 -15z"/>
<path d="M505 45 c-27 -8 -79 -21 -115 -29 l-65 -14 153 -1 c129 -1 152 1 152
14 0 8 6 15 13 15 7 0 4 7 -7 15 -24 18 -65 18 -131 0z"/>
</g>
</svg>
